<?xml version="1.0" encoding="UTF-8"?>
<svg xmlns="http://www.w3.org/2000/svg"
     version="1.1" baseProfile="full"
     xmlns:xlink="http://www.w3.org/1999/xlink"
     x="0" y="0" width="2400.000000mm" height="262.175171mm" viewBox="0 0 33248 3632">
<style type="text/css">
<![CDATA[
.elev {
  font-size: 41px;
}
.dist {
  font-size: 41px;
  fill-opacity: 0
}
.latlng {
  font-size: 41px;
  fill-opacity: 0;
}
.azi {
  font-size: 41px;
  fill-opacity: 0
}
]]>
</style>
<g id="background">
  <rect width="33248" height="3632" fill="#262626"/>
</g>
    <desc>PeakFinder panorama: 43.32075°N, 8.91010°W 0m +3m</desc>
<g id="ruler" style="font-family:Helvetica Neue,Helvetica,sans-serif;font-weight:500;font-size:25.6;stroke:none;fill:#f9f9f9;">
        <text x="240" y="160" text-anchor="start">| 0°</text>
        <text x="695" y="160" text-anchor="start">| 5°</text>
        <text x="1150" y="160" text-anchor="start">| 10°</text>
        <text x="1605" y="160" text-anchor="start">| 15°</text>
        <text x="2060" y="160" text-anchor="start">| 20°</text>
        <text x="2515" y="160" text-anchor="start">| 25°</text>
        <text x="2970" y="160" text-anchor="start">| 30°</text>
        <text x="3425" y="160" text-anchor="start">| 35°</text>
        <text x="3880" y="160" text-anchor="start">| 40°</text>
        <text x="4336" y="160" text-anchor="start">| 45°</text>
        <text x="4791" y="160" text-anchor="start">| 50°</text>
        <text x="5246" y="160" text-anchor="start">| 55°</text>
        <text x="5701" y="160" text-anchor="start">| 60°</text>
        <text x="6156" y="160" text-anchor="start">| 65°</text>
        <text x="6611" y="160" text-anchor="start">| 70°</text>
        <text x="7066" y="160" text-anchor="start">| 75°</text>
        <text x="7521" y="160" text-anchor="start">| 80°</text>
        <text x="7976" y="160" text-anchor="start">| 85°</text>
        <text x="8432" y="160" text-anchor="start">| 90°</text>
        <text x="8887" y="160" text-anchor="start">| 95°</text>
        <text x="9342" y="160" text-anchor="start">| 100°</text>
        <text x="9797" y="160" text-anchor="start">| 105°</text>
        <text x="10252" y="160" text-anchor="start">| 110°</text>
        <text x="10707" y="160" text-anchor="start">| 115°</text>
        <text x="11162" y="160" text-anchor="start">| 120°</text>
        <text x="11617" y="160" text-anchor="start">| 125°</text>
        <text x="12072" y="160" text-anchor="start">| 130°</text>
        <text x="12528" y="160" text-anchor="start">| 135°</text>
        <text x="12983" y="160" text-anchor="start">| 140°</text>
        <text x="13438" y="160" text-anchor="start">| 145°</text>
        <text x="13893" y="160" text-anchor="start">| 150°</text>
        <text x="14348" y="160" text-anchor="start">| 155°</text>
        <text x="14803" y="160" text-anchor="start">| 160°</text>
        <text x="15258" y="160" text-anchor="start">| 165°</text>
        <text x="15713" y="160" text-anchor="start">| 170°</text>
        <text x="16168" y="160" text-anchor="start">| 175°</text>
        <text x="16624" y="160" text-anchor="start">| 180°</text>
        <text x="17079" y="160" text-anchor="start">| 185°</text>
        <text x="17534" y="160" text-anchor="start">| 190°</text>
        <text x="17989" y="160" text-anchor="start">| 195°</text>
        <text x="18444" y="160" text-anchor="start">| 200°</text>
        <text x="18899" y="160" text-anchor="start">| 205°</text>
        <text x="19354" y="160" text-anchor="start">| 210°</text>
        <text x="19809" y="160" text-anchor="start">| 215°</text>
        <text x="20264" y="160" text-anchor="start">| 220°</text>
        <text x="20720" y="160" text-anchor="start">| 225°</text>
        <text x="21175" y="160" text-anchor="start">| 230°</text>
        <text x="21630" y="160" text-anchor="start">| 235°</text>
        <text x="22085" y="160" text-anchor="start">| 240°</text>
        <text x="22540" y="160" text-anchor="start">| 245°</text>
        <text x="22995" y="160" text-anchor="start">| 250°</text>
        <text x="23450" y="160" text-anchor="start">| 255°</text>
        <text x="23905" y="160" text-anchor="start">| 260°</text>
        <text x="24360" y="160" text-anchor="start">| 265°</text>
        <text x="24816" y="160" text-anchor="start">| 270°</text>
        <text x="25271" y="160" text-anchor="start">| 275°</text>
        <text x="25726" y="160" text-anchor="start">| 280°</text>
        <text x="26181" y="160" text-anchor="start">| 285°</text>
        <text x="26636" y="160" text-anchor="start">| 290°</text>
        <text x="27091" y="160" text-anchor="start">| 295°</text>
        <text x="27546" y="160" text-anchor="start">| 300°</text>
        <text x="28001" y="160" text-anchor="start">| 305°</text>
        <text x="28456" y="160" text-anchor="start">| 310°</text>
        <text x="28912" y="160" text-anchor="start">| 315°</text>
        <text x="29367" y="160" text-anchor="start">| 320°</text>
        <text x="29822" y="160" text-anchor="start">| 325°</text>
        <text x="30277" y="160" text-anchor="start">| 330°</text>
        <text x="30732" y="160" text-anchor="start">| 335°</text>
        <text x="31187" y="160" text-anchor="start">| 340°</text>
        <text x="31642" y="160" text-anchor="start">| 345°</text>
        <text x="32097" y="160" text-anchor="start">| 350°</text>
        <text x="32552" y="160" text-anchor="start">| 355°</text>
</g>
<g id="lines">
<g id="section0">
        <path d="M240,1746.78L1264,1746.78" style="fill:none;stroke:#f9f9f9;stroke-width:1.5;" />
        <path d="M1264,1746.78L2288,1746.78" style="fill:none;stroke:#f9f9f9;stroke-width:1.5;" />
        <path d="M2288,1746.78L3312,1746.78" style="fill:none;stroke:#f9f9f9;stroke-width:1.5;" />
        <path d="M3312,1746.78L4336,1746.78" style="fill:none;stroke:#f9f9f9;stroke-width:1.5;" />
        <path d="M4336,1746.78L4610,1746.78L4612,1746.31L4628,1730.48L4630,1729.34L4634,1730.29L4636,1729.71L4640,1726.72L4654,1726.99L4670,1730.25L4682,1731.19L4694,1723.71L4704,1714.74L4706,1713.85L4718,1712.6L4728,1707.1L4730,1704.69L4738,1704.25L4744,1699.96L4754,1699.76L4768,1690.89L4770,1690.41L4782,1691.36L4798,1690.2L4808,1687.53L4820,1687.41L4840,1680.66L4854,1679.26L4894,1684.86L4908,1685.19L4918,1684.18L4946,1677.47L4954,1676.62L4974,1676.62L5002,1677.84L5020,1682.68L5030,1684.21L5056,1686.08L5076,1686.08L5088,1687.65L5102,1692.9L5116,1694.91L5124,1697.61L5160,1718.27L5176,1732.05L5186,1725.94L5200,1724.84L5216,1726.12L5248,1732.42L5294,1731.66L5322,1728.69L5360,1732.52" style="fill:none;stroke:#f9f9f9;stroke-width:1.5;" />
        <path d="M4578,1764.84L4590,1760.29L4604,1753.3L4628,1730.48L4630,1729.34L4634,1730.29L4636,1729.71L4640,1726.72L4654,1726.99L4670,1730.25L4682,1731.19L4694,1723.71L4704,1714.74L4706,1713.85L4718,1712.6L4728,1707.1L4730,1704.69L4738,1704.25L4744,1699.96L4754,1699.76L4768,1690.89L4770,1690.41L4782,1691.36L4798,1690.2L4808,1687.53L4820,1687.41L4840,1680.66L4854,1679.26L4894,1684.86L4908,1685.19L4918,1684.18L4946,1677.47L4954,1676.62L4974,1676.62L5002,1677.84L5020,1682.68L5030,1684.21L5056,1686.08L5076,1686.08L5088,1687.65L5102,1692.9L5116,1694.91L5128,1699.64L5160,1718.27L5190,1744.55L5210,1756.53L5212,1757.46L5234,1758.62" style="fill:none;stroke:#f9f9f9;stroke-width:1.5;" />
        <path d="M5176,1732.05L5186,1725.94L5200,1724.84L5216,1726.12L5248,1732.42L5294,1731.66L5322,1728.69L5360,1732.52" style="fill:none;stroke:#f9f9f9;stroke-width:1.5;" />
        <path d="M5214,1758.34L5224,1762.14" style="fill:none;stroke:#f9f9f9;stroke-width:1.5;" />
</g>
<g id="section1">
        <path d="M3312,1746.78L4336,1746.78" style="fill:none;stroke:#f9f9f9;stroke-width:1.5;" />
        <path d="M4336,1746.78L4610,1746.78L4612,1746.31L4628,1730.48L4630,1729.34L4634,1730.29L4636,1729.71L4640,1726.72L4654,1726.99L4670,1730.25L4682,1731.19L4694,1723.71L4704,1714.74L4706,1713.85L4718,1712.6L4728,1707.1L4730,1704.69L4738,1704.25L4744,1699.96L4754,1699.76L4768,1690.89L4770,1690.41L4782,1691.36L4798,1690.2L4808,1687.53L4820,1687.41L4840,1680.66L4854,1679.26L4894,1684.86L4908,1685.19L4918,1684.18L4946,1677.47L4954,1676.62L4974,1676.62L5002,1677.84L5020,1682.68L5030,1684.21L5056,1686.08L5076,1686.08L5088,1687.65L5102,1692.9L5116,1694.91L5124,1697.61L5160,1718.27L5176,1732.05L5186,1725.94L5200,1724.84L5216,1726.12L5248,1732.42L5294,1731.66L5322,1728.69L5360,1732.52" style="fill:none;stroke:#f9f9f9;stroke-width:1.5;" />
        <path d="M4578,1764.84L4590,1760.29L4604,1753.3L4628,1730.48L4630,1729.34L4634,1730.29L4636,1729.71L4640,1726.72L4654,1726.99L4670,1730.25L4682,1731.19L4694,1723.71L4704,1714.74L4706,1713.85L4718,1712.6L4728,1707.1L4730,1704.69L4738,1704.25L4744,1699.96L4754,1699.76L4768,1690.89L4770,1690.41L4782,1691.36L4798,1690.2L4808,1687.53L4820,1687.41L4840,1680.66L4854,1679.26L4894,1684.86L4908,1685.19L4918,1684.18L4946,1677.47L4954,1676.62L4974,1676.62L5002,1677.84L5020,1682.68L5030,1684.21L5056,1686.08L5076,1686.08L5088,1687.65L5102,1692.9L5116,1694.91L5128,1699.64L5160,1718.27L5190,1744.55L5210,1756.53L5212,1757.46L5234,1758.62" style="fill:none;stroke:#f9f9f9;stroke-width:1.5;" />
        <path d="M5176,1732.05L5186,1725.94L5200,1724.84L5216,1726.12L5248,1732.42L5294,1731.66L5322,1728.69L5360,1732.52" style="fill:none;stroke:#f9f9f9;stroke-width:1.5;" />
        <path d="M5214,1758.34L5224,1762.14" style="fill:none;stroke:#f9f9f9;stroke-width:1.5;" />
        <path d="M5360,1732.52L5372,1733.68L5414,1746.78L5516,1746.78L5530,1744.06L5544,1737.56L5550,1735.81L5560,1735.29L5574,1737.17L5604,1737.18L5608,1735.7L5612,1735.9L5636,1732.47L5650,1733.82L5662,1728.13L5682,1724.75L5710,1727.75L5726,1728.31L5752,1728.09L5764,1724.35L5780,1726.67L5790,1726L5810,1727.8L5848,1725.01L5870,1726.31L5886,1729.6L5908,1731.59L5922,1731.76L5934,1729.05L5960,1727.29L5996,1729.75L6004,1728.92L6012,1729.77L6028,1729.14L6034,1727.82L6046,1727.33L6050,1725.59L6066,1723.93L6090,1723.66L6100,1726.64L6110,1727.47L6120,1729.63L6130,1727.07L6138,1725.98L6152,1728.31L6158,1730.44L6168,1726.2L6182,1726.23L6194,1730.76L6200,1730.48L6208,1731.37L6226,1729.97L6230,1728.52L6240,1728.88L6286,1711.73L6302,1706.83L6322,1699.16L6346,1691.15L6368,1684.61L6384,1681.41" style="fill:none;stroke:#f9f9f9;stroke-width:1.5;" />
        <path d="M5360,1732.52L5372,1733.68L5418,1748.06L5438,1752.43L5454,1757.53L5510,1748.93L5532,1747.56L5558,1741.4L5572,1740.19L5612,1741.23L5638,1746.6L5670,1748.83L5696,1761.19" style="fill:none;stroke:#f9f9f9;stroke-width:1.5;" />
        <path d="M5444,1759.69L5452,1757.93" style="fill:none;stroke:#f9f9f9;stroke-width:1.5;" />
        <path d="M5496,1746.78L5536,1746.78" style="fill:none;stroke:#f9f9f9;stroke-width:1.5;" />
        <path d="M5518,1746.07L5528,1744.83" style="fill:none;stroke:#f9f9f9;stroke-width:1.5;" />
        <path d="M5530,1744.06L5538,1740.74" style="fill:none;stroke:#f9f9f9;stroke-width:1.5;" />
        <path d="M5540,1739.83L5544,1737.56L5550,1735.81" style="fill:none;stroke:#f9f9f9;stroke-width:1.5;" />
        <path d="M5552,1735.81L5574,1737.17" style="fill:none;stroke:#f9f9f9;stroke-width:1.5;" />
        <path d="M5576,1737.23L5604,1737.23L5626,1743.17L5632,1742.68L5638,1743.82" style="fill:none;stroke:#f9f9f9;stroke-width:1.5;" />
        <path d="M5604,1737.18L5608,1735.7L5612,1735.9L5636,1732.47L5648,1733.79" style="fill:none;stroke:#f9f9f9;stroke-width:1.5;" />
        <path d="M5630,1742.53L5642,1738.72L5654,1731.63L5662,1728.13L5676,1725.85" style="fill:none;stroke:#f9f9f9;stroke-width:1.5;" />
        <path d="M5636,1743.21L5642,1742.24" style="fill:none;stroke:#f9f9f9;stroke-width:1.5;" />
        <path d="M5640,1746.78L5714,1746.78" style="fill:none;stroke:#f9f9f9;stroke-width:1.5;" />
        <path d="M5640,1743.67L5658,1738.33L5664,1739.04" style="fill:none;stroke:#f9f9f9;stroke-width:1.5;" />
        <path d="M5666,1738.63L5672,1738.27L5678,1739.65L5692,1741.18L5712,1740.92L5716,1741.61" style="fill:none;stroke:#f9f9f9;stroke-width:1.5;" />
        <path d="M5678,1725.73L5682,1724.75L5710,1727.75L5752,1728.09" style="fill:none;stroke:#f9f9f9;stroke-width:1.5;" />
        <path d="M5682,1739.54L5728,1734.03L5736,1732.29" style="fill:none;stroke:#f9f9f9;stroke-width:1.5;" />
        <path d="M5696,1737.6L5712,1733.01" style="fill:none;stroke:#f9f9f9;stroke-width:1.5;" />
        <path d="M5704,1745.56L5706,1743.89L5716,1742.6" style="fill:none;stroke:#f9f9f9;stroke-width:1.5;" />
        <path d="M5718,1741.94L5732,1736.57L5736,1735.84L5742,1735.81L5758,1738.16L5768,1736.75L5776,1738.93L5790,1740.85" style="fill:none;stroke:#f9f9f9;stroke-width:1.5;" />
        <path d="M5720,1746.78L5722,1746.78" style="fill:none;stroke:#f9f9f9;stroke-width:1.5;" />
        <path d="M5726,1746.78L5748,1746.78" style="fill:none;stroke:#f9f9f9;stroke-width:1.5;" />
        <path d="M5734,1731.01L5752,1728.19" style="fill:none;stroke:#f9f9f9;stroke-width:1.5;" />
        <path d="M5754,1727.58L5766,1724.32L5780,1726.67L5790,1726L5810,1727.8L5830,1726.7" style="fill:none;stroke:#f9f9f9;stroke-width:1.5;" />
        <path d="M5756,1746.78L5760,1746.78" style="fill:none;stroke:#f9f9f9;stroke-width:1.5;" />
        <path d="M5766,1746.78L5786,1746.78" style="fill:none;stroke:#f9f9f9;stroke-width:1.5;" />
        <path d="M5790,1746.78L5848,1746.78" style="fill:none;stroke:#f9f9f9;stroke-width:1.5;" />
        <path d="M5792,1741.13L5806,1741.7L5848,1739.71L5858,1740.04L5866,1742.43L5870,1742.6L5886,1740.87L5896,1738.66L5920,1746.61" style="fill:none;stroke:#f9f9f9;stroke-width:1.5;" />
        <path d="M5832,1726.29L5848,1725.01L5870,1726.31L5886,1729.6" style="fill:none;stroke:#f9f9f9;stroke-width:1.5;" />
        <path d="M5852,1739.23L5856,1737.21" style="fill:none;stroke:#f9f9f9;stroke-width:1.5;" />
        <path d="M5858,1736.65L5862,1734.13L5870,1737.17L5886,1740.37" style="fill:none;stroke:#f9f9f9;stroke-width:1.5;" />
        <path d="M5862,1746.78L5870,1746.78" style="fill:none;stroke:#f9f9f9;stroke-width:1.5;" />
        <path d="M5874,1746.78L5880,1746.78" style="fill:none;stroke:#f9f9f9;stroke-width:1.5;" />
        <path d="M5882,1739.18L5888,1738.19L5894,1738.88" style="fill:none;stroke:#f9f9f9;stroke-width:1.5;" />
        <path d="M5882,1738.61L5886,1738.33" style="fill:none;stroke:#f9f9f9;stroke-width:1.5;" />
        <path d="M5884,1746.78L5890,1746.78" style="fill:none;stroke:#f9f9f9;stroke-width:1.5;" />
        <path d="M5888,1729.76L5896,1730.31" style="fill:none;stroke:#f9f9f9;stroke-width:1.5;" />
        <path d="M5890,1731.02L5892,1730.86" style="fill:none;stroke:#f9f9f9;stroke-width:1.5;" />
        <path d="M5898,1730.53L5908,1731.59L5922,1731.76" style="fill:none;stroke:#f9f9f9;stroke-width:1.5;" />
        <path d="M5900,1739.14L5922,1737.6L5928,1738.78L5934,1737.92L5944,1739.4L5954,1739.79" style="fill:none;stroke:#f9f9f9;stroke-width:1.5;" />
        <path d="M5910,1746.78L6170,1746.78" style="fill:none;stroke:#f9f9f9;stroke-width:1.5;" />
        <path d="M5914,1736.14L5934,1736.87" style="fill:none;stroke:#f9f9f9;stroke-width:1.5;" />
        <path d="M5918,1745.46L5928,1746.4" style="fill:none;stroke:#f9f9f9;stroke-width:1.5;" />
        <path d="M5924,1731.5L5934,1729.05L5954,1728.22" style="fill:none;stroke:#f9f9f9;stroke-width:1.5;" />
        <path d="M5930,1746.34L5932,1746.38" style="fill:none;stroke:#f9f9f9;stroke-width:1.5;" />
        <path d="M5934,1746.4L5936,1746.46" style="fill:none;stroke:#f9f9f9;stroke-width:1.5;" />
        <path d="M5934,1737.85L5940,1735.67L5966,1739.27" style="fill:none;stroke:#f9f9f9;stroke-width:1.5;" />
        <path d="M5938,1746.34L5946,1744.76" style="fill:none;stroke:#f9f9f9;stroke-width:1.5;" />
        <path d="M5944,1746.25L5956,1739.8L5964,1739.68" style="fill:none;stroke:#f9f9f9;stroke-width:1.5;" />
        <path d="M5956,1727.97L5964,1727.27L5980,1728.82" style="fill:none;stroke:#f9f9f9;stroke-width:1.5;" />
        <path d="M5964,1739.67L5966,1739.37" style="fill:none;stroke:#f9f9f9;stroke-width:1.5;" />
        <path d="M5966,1739.54L5980,1736.2L5998,1729.76L6004,1728.92L6012,1729.77L6028,1729.14L6034,1727.82L6046,1727.33L6050,1725.59L6066,1723.93L6076,1723.95" style="fill:none;stroke:#f9f9f9;stroke-width:1.5;" />
        <path d="M5968,1739.11L5976,1736.76" style="fill:none;stroke:#f9f9f9;stroke-width:1.5;" />
        <path d="M5982,1728.89L5996,1729.75" style="fill:none;stroke:#f9f9f9;stroke-width:1.5;" />
        <path d="M5998,1741.41L6008,1738.15L6016,1737.73" style="fill:none;stroke:#f9f9f9;stroke-width:1.5;" />
        <path d="M6014,1739.12L6024,1734.51L6040,1729.26L6052,1726.82L6072,1724.95" style="fill:none;stroke:#f9f9f9;stroke-width:1.5;" />
        <path d="M6036,1746.7L6044,1745.81" style="fill:none;stroke:#f9f9f9;stroke-width:1.5;" />
        <path d="M6078,1724.1L6090,1723.66L6098,1725.93" style="fill:none;stroke:#f9f9f9;stroke-width:1.5;" />
        <path d="M6100,1726.64L6112,1727.86L6120,1729.63L6130,1727.07L6138,1725.98L6152,1728.31L6160,1731.71L6174,1736.01" style="fill:none;stroke:#f9f9f9;stroke-width:1.5;" />
        <path d="M6104,1765.23L6132,1754.17L6146,1752.12L6188,1742.34L6202,1740.8L6216,1737.44L6286,1711.73L6302,1706.83L6322,1699.16L6346,1691.15L6368,1684.61L6384,1681.41" style="fill:none;stroke:#f9f9f9;stroke-width:1.5;" />
        <path d="M6108,1746.21L6114,1744.78L6142,1742.15L6148,1742.96L6180,1743.15" style="fill:none;stroke:#f9f9f9;stroke-width:1.5;" />
        <path d="M6158,1730.44L6168,1726.2L6182,1726.23L6206,1735.64" style="fill:none;stroke:#f9f9f9;stroke-width:1.5;" />
        <path d="M6172,1742.01L6178,1739.81L6184,1740.25" style="fill:none;stroke:#f9f9f9;stroke-width:1.5;" />
        <path d="M6176,1742.51L6184,1740.5L6202,1737.68L6230,1728.52L6238,1729.12" style="fill:none;stroke:#f9f9f9;stroke-width:1.5;" />
        <path d="M6196,1731.01L6208,1731.37" style="fill:none;stroke:#f9f9f9;stroke-width:1.5;" />
        <path d="M6210,1731.6L6222,1730.98" style="fill:none;stroke:#f9f9f9;stroke-width:1.5;" />
        <path d="M6282,1766.85L6290,1765.4L6302,1761.89L6322,1753.9L6342,1747.9L6374,1735.74L6384,1732.75" style="fill:none;stroke:#f9f9f9;stroke-width:1.5;" />
        <path d="M6384,1681.41L6458,1671.18L6480,1665.06L6514,1659.55L6534,1654.35L6580,1648.2L6602,1643.94L6628,1640.46L6638,1637.9L6656,1637.12L6664,1635.97L6680,1631.65L6698,1629.48L6706,1627.55L6738,1626.79L6796,1619.01L6946,1614.83L6968,1610.88L6982,1614.43L7008,1609.01L7054,1604.62L7074,1603.73L7106,1596.82L7128,1595.51L7140,1593.28L7174,1588.98L7214,1590.65L7236,1593.45L7252,1593.36L7286,1596.56L7296,1597.8L7316,1602.34L7336,1605.55L7346,1608.56L7366,1610.55L7382,1614.69L7400,1615.74L7408,1617.62" style="fill:none;stroke:#f9f9f9;stroke-width:1.5;" />
        <path d="M6384,1732.75L6418,1721.39" style="fill:none;stroke:#f9f9f9;stroke-width:1.5;" />
        <path d="M6384,1681.41L6458,1671.18L6480,1665.06L6514,1659.55L6534,1654.35L6574,1649.13L6590,1646.25L6592,1646.64L6604,1645.27L6606,1643.31L6624,1641.15L6638,1637.9L6656,1637.12L6664,1635.97L6680,1631.65L6698,1629.48L6706,1627.55L6738,1626.79L6796,1619.01L6894,1615.91L6942,1615.76" style="fill:none;stroke:#f9f9f9;stroke-width:1.5;" />
        <path d="M6428,1769.12L6440,1767.29L6462,1765.38" style="fill:none;stroke:#f9f9f9;stroke-width:1.5;" />
        <path d="M6466,1702.82L6500,1687.51L6510,1681.27L6528,1675.14" style="fill:none;stroke:#f9f9f9;stroke-width:1.5;" />
        <path d="M6540,1670.37L6558,1661.56L6578,1653.26L6592,1645.8L6604,1643.62" style="fill:none;stroke:#f9f9f9;stroke-width:1.5;" />
        <path d="M6602,2842.91L6686,2788.59L6906,2641.21L7038,2556.15L7102,2511.71L7166,2463.39L7234,2408.39L7306,2346.94L7408,2256.71" style="fill:none;stroke:#f9f9f9;stroke-width:1.5;" />
        <path d="M6608,1733.22L6610,1732.19L6614,1731.86" style="fill:none;stroke:#f9f9f9;stroke-width:1.5;" />
        <path d="M6644,1723.63L6658,1717.62L6682,1708.86L6722,1690.85L6730,1688.08L6734,1686.86L6772,1681L6810,1667.84L6826,1664.07L6844,1661.14L6880,1646.45L6894,1638.1L6934,1618.84L6942,1615.77L6968,1610.88L6994,1617.34L7034,1610.12L7044,1610.12L7046,1605.56L7076,1603.49L7106,1596.82L7128,1595.51L7140,1593.28L7174,1588.98L7214,1590.65L7236,1593.45L7252,1593.36L7286,1596.56L7296,1597.8L7316,1602.34L7336,1605.55L7346,1608.56L7366,1610.55L7382,1614.69L7400,1615.74L7408,1617.62" style="fill:none;stroke:#f9f9f9;stroke-width:1.5;" />
        <path d="M6750,2553.27L6820,2537.82L7030,2474.19L7090,2455.05L7146,2436.11L7198,2417.24L7244,2399.22" style="fill:none;stroke:#f9f9f9;stroke-width:1.5;" />
        <path d="M6980,2335.49L7014,2334.37L7040,2332.48L7066,2329.48L7092,2325.16L7122,2318.08L7166,2300.06L7194,2286.51L7222,2271.41L7250,2254.86L7278,2236.96L7306,2217.84L7338,2194.65L7408,2139.91" style="fill:none;stroke:#f9f9f9;stroke-width:1.5;" />
        <path d="M6982,1614.43L7008,1609.01L7044,1605.78" style="fill:none;stroke:#f9f9f9;stroke-width:1.5;" />
        <path d="M7116,1597.74L7124,1596.25" style="fill:none;stroke:#f9f9f9;stroke-width:1.5;" />
        <path d="M7364,1614.39L7382,1615.16" style="fill:none;stroke:#f9f9f9;stroke-width:1.5;" />
        <path d="M7372,2163.15L7382,2159.95" style="fill:none;stroke:#f9f9f9;stroke-width:1.5;" />
        <path d="M7394,1616.34L7398,1616.82" style="fill:none;stroke:#f9f9f9;stroke-width:1.5;" />
        <path d="M7404,1617.69L7408,1618.69" style="fill:none;stroke:#f9f9f9;stroke-width:1.5;" />
        <path d="M7408,1617.62L7550,1623.75L7568,1625.99L7606,1628.93L7680,1630.64L7700,1636.43L7722,1637.74L7752,1641.18L7790,1641.97L7828,1645.84L7860,1652.77L7908,1667.93L7910,1667.43L7942,1639.22L7974,1613.32L7998,1595.67L8030,1573.93L8070,1548.23L8106,1526.65L8142,1506.7L8178,1488.47L8210,1473.81L8242,1460.67L8274,1449.11L8306,1439.19L8338,1430.96L8372,1424.13L8402,1419.79L8432,1417.09" style="fill:none;stroke:#f9f9f9;stroke-width:1.5;" />
        <path d="M7408,2256.71L7518,2160.08L7570,2116.57L7614,2081.67L7670,2032.39L7710,2000.81L7750,1973.03L7802,1940.37L7834,1921.6L7870,1902.64L7906,1885.81L7946,1869.41L7986,1855.21L8026,1842.99L8072,1831.08" style="fill:none;stroke:#f9f9f9;stroke-width:1.5;" />
        <path d="M7408,2139.91L7574,2000.39L7614,1964.79L7646,1934.39L7682,1898.63L7822,1753.42L7882,1693.66L7914,1663.79L7942,1639.22L7970,1616.42L7998,1595.67L8058,1555.75L8118,1519.82L8174,1490.41L8226,1467.05L8278,1447.78L8306,1439.19L8330,1432.85L8356,1427.09L8384,1422.2L8408,1419.12L8432,1417.09" style="fill:none;stroke:#f9f9f9;stroke-width:1.5;" />
        <path d="M7408,1618.69L7412,1619.65L7414,1618.33L7518,1622L7550,1623.75L7568,1625.99L7606,1628.93L7680,1630.64L7700,1636.43L7722,1637.74L7752,1641.18L7790,1641.97L7828,1645.84L7860,1652.77L7908,1667.93" style="fill:none;stroke:#f9f9f9;stroke-width:1.5;" />
        <path d="M7408,1617.62L7412,1618.27" style="fill:none;stroke:#f9f9f9;stroke-width:1.5;" />
        <path d="M7444,1767.25L7454,1764.1L7492,1757.77L7556,1754.38L7578,1750.26L7588,1749.13" style="fill:none;stroke:#f9f9f9;stroke-width:1.5;" />
</g>
<g id="section2">
        <path d="M8432,1417.09L8444,1416.62L8494,1418.16L8522,1421.35L8552,1426.73L8582,1433.76L8614,1442.68L8730,1480.18L8742,1483.47L8798,1490.34L8844,1488.35L8888,1484.58L8926,1483.44L8936,1477.19L8966,1455.96L9070,1378.28L9114,1346.97L9158,1319.08L9206,1293.44L9238,1278.14L9266,1266.01L9298,1253.72L9326,1244.44L9350,1237.65L9374,1232.01L9428,1221.79L9456,1217.71" style="fill:none;stroke:#f9f9f9;stroke-width:1.5;" />
        <path d="M8432,1417.09L8494,1418.16L8522,1421.35L8546,1425.5L8578,1432.74L8614,1442.68L8738,1482.72L8798,1490.34L8844,1488.35L8878,1485.23L8916,1483.49L8970,1484.8L8996,1486.77L9036,1491.95L9076,1499.25L9214,1531.44L9262,1530.26L9372,1530L9456,1528.19" style="fill:none;stroke:#f9f9f9;stroke-width:1.5;" />
        <path d="M8928,1482.65L8970,1453.05L9070,1378.28L9114,1346.97L9158,1319.08L9206,1293.44L9238,1278.14L9266,1266.01L9298,1253.72L9326,1244.44L9350,1237.65L9374,1232.01L9428,1221.79L9456,1217.71" style="fill:none;stroke:#f9f9f9;stroke-width:1.5;" />
        <path d="M9456,1217.71L9478,1215.12L9484,1213.17L9496,1207.73L9518,1195.68L9558,1175.56L9574,1168.79L9590,1163.21L9646,1147.76L9668,1142.94L9702,1136.99L9726,1128.2L9746,1124.53L9754,1124.04L9772,1124.76L9786,1126.84L9800,1130.05L9816,1134.85L9836,1142.18L9910,1174.77L9930,1181.4L9982,1196.24L10086,1221.54L10106,1226.02L10132,1228.83L10136,1228.93L10174,1211.56L10210,1197.5L10234,1189.69L10262,1182.29L10298,1174.68L10334,1168.51L10374,1163.38L10414,1159.86L10446,1151.74L10480,1146.14" style="fill:none;stroke:#f9f9f9;stroke-width:1.5;" />
        <path d="M9456,1528.19L9630,1520.95L9692,1519.46L9774,1519.83L9876,1522.6" style="fill:none;stroke:#f9f9f9;stroke-width:1.5;" />
        <path d="M9456,1217.71L9476,1215.61L9482,1214.05L9494,1208.87L9518,1195.68L9558,1175.56L9574,1168.79L9594,1161.94L9654,1145.84L9702,1136.99L9718,1130.67L9730,1127.18L9740,1125.25L9754,1124.04L9780,1125.8L9804,1131.14L9838,1142.98L9910,1174.77L9926,1180.18L9982,1196.24L10106,1226.02L10174,1232.65L10238,1236.7L10258,1234.36L10286,1233.14L10322,1233.67L10358,1235.59L10386,1230.37L10414,1226.6L10448,1223.76L10480,1222.08" style="fill:none;stroke:#f9f9f9;stroke-width:1.5;" />
        <path d="M10084,1401.92L10102,1388.77" style="fill:none;stroke:#f9f9f9;stroke-width:1.5;" />
        <path d="M10118,1376.82L10202,1313.94L10230,1294.64L10258,1277.11L10282,1263.95L10306,1252.79L10330,1243.84L10358,1235.96" style="fill:none;stroke:#f9f9f9;stroke-width:1.5;" />
        <path d="M10136,1228.93L10174,1211.56L10210,1197.5L10242,1187.4L10278,1178.75L10322,1170.38L10374,1163.38L10434,1158.64L10480,1157.53" style="fill:none;stroke:#f9f9f9;stroke-width:1.5;" />
        <path d="M10414,1159.86L10448,1151.32L10480,1146.14" style="fill:none;stroke:#f9f9f9;stroke-width:1.5;" />
        <path d="M10422,1451.85L10480,1434.21" style="fill:none;stroke:#f9f9f9;stroke-width:1.5;" />
        <path d="M10480,1146.14L10510,1143.38L10542,1143.77L10568,1145.84L10604,1149.98L10636,1150.19L10670,1145.68L10688,1144.44L10732,1145.67L10786,1120.18L10810,1110.49L10834,1102.21L10854,1096.57L10872,1092.59L10896,1088.93L10918,1087.01L10972,1087.18L10982,1087.85L11012,1090.76L11090,1100.5L11182,1097.02L11310,1096.48L11438,1098L11474,1096.8L11504,1091.94" style="fill:none;stroke:#f9f9f9;stroke-width:1.5;" />
        <path d="M10480,1434.21L10546,1412.22L10598,1397.23L10646,1386.46L10694,1379.22L10744,1374.99L10792,1373.44L10856,1373.85L10950,1375.99L10998,1375.3" style="fill:none;stroke:#f9f9f9;stroke-width:1.5;" />
        <path d="M10480,1222.08L10530,1219.71L10568,1216.82L10582,1213.81L10606,1206.8L10646,1192.18L10734,1144.81L10766,1129.15L10794,1116.81L10818,1107.56L10842,1099.81L10866,1093.79L10890,1089.68L10926,1086.62L10972,1087.18L11006,1090.08L11090,1100.5L11182,1097.02L11310,1096.48L11438,1098L11474,1096.8L11504,1093.15" style="fill:none;stroke:#f9f9f9;stroke-width:1.5;" />
        <path d="M10480,1157.53L10504,1158.08L10534,1160.14L10616,1172.64" style="fill:none;stroke:#f9f9f9;stroke-width:1.5;" />
        <path d="M10480,1146.14L10494,1144.42L10514,1143.27L10542,1143.77L10568,1145.84L10604,1149.98L10636,1150.19L10670,1145.68L10688,1144.44L10732,1145.67" style="fill:none;stroke:#f9f9f9;stroke-width:1.5;" />
        <path d="M10624,1173.88L10662,1179.78" style="fill:none;stroke:#f9f9f9;stroke-width:1.5;" />
        <path d="M11228,1365.54L11256,1364.11" style="fill:none;stroke:#f9f9f9;stroke-width:1.5;" />
        <path d="M11484,1095.68L11504,1091.94" style="fill:none;stroke:#f9f9f9;stroke-width:1.5;" />
        <path d="M11504,1091.94L11620,1064.87L11710,1035.47L11846,996.46L11894,984.894L11974,967.464L12060,947.528L12102,939.554L12148,933.1L12194,928.922L12286,922.922L12334,916.781L12358,912.195L12394,904.037L12442,890.842L12472,883.863L12502,879.329L12528,877.835" style="fill:none;stroke:#f9f9f9;stroke-width:1.5;" />
        <path d="M11504,1093.15L11542,1086.23L11586,1075.18L11622,1064.23L11710,1035.47L11842,997.503L11890,985.809L11974,967.464L12060,947.528L12102,939.554L12148,933.1L12194,928.922L12286,922.922L12334,916.781L12358,912.195L12394,904.037L12442,890.842L12472,883.863L12502,879.329L12528,877.835" style="fill:none;stroke:#f9f9f9;stroke-width:1.5;" />
        <path d="M11504,1091.94L11618,1065.35" style="fill:none;stroke:#f9f9f9;stroke-width:1.5;" />
        <path d="M11878,1447.87L11934,1444.19L11994,1441.59" style="fill:none;stroke:#f9f9f9;stroke-width:1.5;" />
        <path d="M12528,877.835L12558,879.196L12584,883.026L12616,890.355L12702,914.402L12842,942.019L12894,950.997L12922,954.919L12958,958.439L13012,961.128L13038,961.609L13166,960.356L13202,960.857L13240,962.997L13280,967.765L13312,973.615L13344,981.014L13386,992.462L13498,1025.39L13526,1032.4L13552,1036.72" style="fill:none;stroke:#f9f9f9;stroke-width:1.5;" />
        <path d="M12528,877.835L12558,879.196L12584,883.026L12616,890.355L12702,914.402L12842,942.019L12894,950.997L12922,954.919L12958,958.439L13012,961.128L13038,961.609L13166,960.356L13202,960.857L13240,962.997L13280,967.765L13312,973.615L13344,981.014L13386,992.462L13498,1025.39L13526,1032.4L13552,1036.72" style="fill:none;stroke:#f9f9f9;stroke-width:1.5;" />
        <path d="M12926,1469.66L12992,1483.94" style="fill:none;stroke:#f9f9f9;stroke-width:1.5;" />
</g>
<g id="section3">
        <path d="M11504,1091.94L11620,1064.87L11710,1035.47L11846,996.46L11894,984.894L11974,967.464L12060,947.528L12102,939.554L12148,933.1L12194,928.922L12286,922.922L12334,916.781L12358,912.195L12394,904.037L12442,890.842L12472,883.863L12502,879.329L12528,877.835" style="fill:none;stroke:#f9f9f9;stroke-width:1.5;" />
        <path d="M11504,1093.15L11542,1086.23L11586,1075.18L11622,1064.23L11710,1035.47L11842,997.503L11890,985.809L11974,967.464L12060,947.528L12102,939.554L12148,933.1L12194,928.922L12286,922.922L12334,916.781L12358,912.195L12394,904.037L12442,890.842L12472,883.863L12502,879.329L12528,877.835" style="fill:none;stroke:#f9f9f9;stroke-width:1.5;" />
        <path d="M11504,1091.94L11618,1065.35" style="fill:none;stroke:#f9f9f9;stroke-width:1.5;" />
        <path d="M11878,1447.87L11934,1444.19L11994,1441.59" style="fill:none;stroke:#f9f9f9;stroke-width:1.5;" />
        <path d="M12528,877.835L12558,879.196L12584,883.026L12616,890.355L12702,914.402L12842,942.019L12894,950.997L12922,954.919L12958,958.439L13012,961.128L13038,961.609L13166,960.356L13202,960.857L13240,962.997L13280,967.765L13312,973.615L13344,981.014L13386,992.462L13498,1025.39L13526,1032.4L13552,1036.72" style="fill:none;stroke:#f9f9f9;stroke-width:1.5;" />
        <path d="M12528,877.835L12558,879.196L12584,883.026L12616,890.355L12702,914.402L12842,942.019L12894,950.997L12922,954.919L12958,958.439L13012,961.128L13038,961.609L13166,960.356L13202,960.857L13240,962.997L13280,967.765L13312,973.615L13344,981.014L13386,992.462L13498,1025.39L13526,1032.4L13552,1036.72" style="fill:none;stroke:#f9f9f9;stroke-width:1.5;" />
        <path d="M12926,1469.66L12992,1483.94" style="fill:none;stroke:#f9f9f9;stroke-width:1.5;" />
        <path d="M13552,1036.72L13590,1041.18L13678,1048.86L13732,1056.7L13766,1063.5L13798,1071.05L13894,1097.2L13896,1097.36L13952,1085.61L13994,1079.66L14016,1078.05L14062,1078.53L14072,1079.29L14112,1084.38L14150,1091.84L14194,1102.8L14306,1133.69L14344,1142.34L14380,1148.76L14420,1153.6L14458,1156.04L14510,1156.93L14576,1156.13" style="fill:none;stroke:#f9f9f9;stroke-width:1.5;" />
        <path d="M13552,1036.72L13594,1041.56L13678,1048.86L13732,1056.7L13766,1063.5L13798,1071.05L13894,1097.2L13896,1097.36L13952,1085.61L13994,1079.66L14016,1078.05L14062,1078.53L14072,1079.29L14112,1084.38L14150,1091.84L14194,1102.8L14306,1133.69L14344,1142.34L14380,1148.76L14420,1153.6L14458,1156.04L14510,1156.93L14576,1156.13" style="fill:none;stroke:#f9f9f9;stroke-width:1.5;" />
        <path d="M13820,1115.32L13894,1097.83" style="fill:none;stroke:#f9f9f9;stroke-width:1.5;" />
        <path d="M14576,1156.13L14638,1155.87L14676,1156.98L14702,1158.6L14750,1163.99L14772,1167.68L14798,1173.16L14838,1184.06L14882,1199.1L15042,1264.18L15114,1291.49L15174,1305.46L15324,1337.96L15434,1364.37L15484,1375.53L15546,1386.86L15576,1391.03L15600,1393.3" style="fill:none;stroke:#f9f9f9;stroke-width:1.5;" />
        <path d="M14576,1156.13L14638,1155.87L14676,1156.98L14702,1158.6L14750,1163.99L14772,1167.68L14798,1173.16L14838,1184.06L14882,1199.1L15042,1264.18L15114,1291.49L15174,1305.46L15324,1337.96L15434,1364.37L15484,1375.53L15546,1386.86L15576,1391.03L15600,1393.3" style="fill:none;stroke:#f9f9f9;stroke-width:1.5;" />
        <path d="M14692,1792.44L14720,1796.3L14750,1801.53L14778,1807.54L14810,1815.75L14874,1835.71L14956,1865.88L15030,1871.38L15102,1877.88L15398,1909.81L15600,1928.59" style="fill:none;stroke:#f9f9f9;stroke-width:1.5;" />
        <path d="M15600,1393.3L15662,1395.93L15726,1395.45L15844,1392.73L15886,1393.24L15936,1396.09L15976,1400.67L16030,1409.62L16092,1422.98L16350,1490.04L16460,1510.44L16510,1512.41L16526,1508.84L16558,1508.72L16566,1507.87L16584,1504.77L16624,1490.4" style="fill:none;stroke:#f9f9f9;stroke-width:1.5;" />
        <path d="M15600,1928.59L15702,1937.29L15798,1946.91" style="fill:none;stroke:#f9f9f9;stroke-width:1.5;" />
        <path d="M15600,1393.3L15662,1395.93L15726,1395.45L15844,1392.73L15886,1393.24L15944,1396.83L15994,1403.34L16046,1412.78L16100,1424.91L16350,1490.04L16454,1509.25L16518,1523.07L16574,1538.1L16624,1554.82" style="fill:none;stroke:#f9f9f9;stroke-width:1.5;" />
        <path d="M16206,1967.49L16234,1967.79" style="fill:none;stroke:#f9f9f9;stroke-width:1.5;" />
        <path d="M16250,1967L16312,1962.8L16448,1942.63L16534,1932.47L16576,1928.91L16624,1927.39" style="fill:none;stroke:#f9f9f9;stroke-width:1.5;" />
        <path d="M16462,1510.52L16510,1512.41L16526,1508.84L16558,1508.72L16566,1507.87L16584,1504.77L16624,1490.4" style="fill:none;stroke:#f9f9f9;stroke-width:1.5;" />
        <path d="M16496,1515.9L16500,1514.91" style="fill:none;stroke:#f9f9f9;stroke-width:1.5;" />
        <path d="M16508,1512.95L16510,1512.46" style="fill:none;stroke:#f9f9f9;stroke-width:1.5;" />
</g>
<g id="section4">
        <path d="M15600,1393.3L15662,1395.93L15726,1395.45L15844,1392.73L15886,1393.24L15936,1396.09L15976,1400.67L16030,1409.62L16092,1422.98L16350,1490.04L16460,1510.44L16510,1512.41L16526,1508.84L16558,1508.72L16566,1507.87L16584,1504.77L16624,1490.4" style="fill:none;stroke:#f9f9f9;stroke-width:1.5;" />
        <path d="M15600,1928.59L15702,1937.29L15798,1946.91" style="fill:none;stroke:#f9f9f9;stroke-width:1.5;" />
        <path d="M15600,1393.3L15662,1395.93L15726,1395.45L15844,1392.73L15886,1393.24L15944,1396.83L15994,1403.34L16046,1412.78L16100,1424.91L16350,1490.04L16454,1509.25L16518,1523.07L16574,1538.1L16624,1554.82" style="fill:none;stroke:#f9f9f9;stroke-width:1.5;" />
        <path d="M16206,1967.49L16234,1967.79" style="fill:none;stroke:#f9f9f9;stroke-width:1.5;" />
        <path d="M16250,1967L16312,1962.8L16448,1942.63L16534,1932.47L16576,1928.91L16624,1927.39" style="fill:none;stroke:#f9f9f9;stroke-width:1.5;" />
        <path d="M16462,1510.52L16510,1512.41L16526,1508.84L16558,1508.72L16566,1507.87L16584,1504.77L16624,1490.4" style="fill:none;stroke:#f9f9f9;stroke-width:1.5;" />
        <path d="M16496,1515.9L16500,1514.91" style="fill:none;stroke:#f9f9f9;stroke-width:1.5;" />
        <path d="M16508,1512.95L16510,1512.46" style="fill:none;stroke:#f9f9f9;stroke-width:1.5;" />
        <path d="M16624,1490.4L16672,1484.59L16712,1485.74L16720,1483.92L16750,1483.93L16770,1479.4L16796,1478.94L16814,1478.71L16826,1480.14L16850,1480.63L16912,1479.79L16918,1480.31L16956,1479.16L16966,1480.45L16994,1481.5L17010,1484.16L17052,1483.13L17070,1486.59L17090,1487.41L17142,1492.97L17148,1493.41L17166,1492.18L17190,1494.49L17216,1495.68L17250,1501.94L17320,1503.17L17364,1509.33L17432,1511.98L17518,1523.98L17582,1528.98L17600,1532.81L17626,1527.64L17648,1533.33" style="fill:none;stroke:#f9f9f9;stroke-width:1.5;" />
        <path d="M16624,1927.39L16682,1928.46L16724,1930.43L16802,1935.85L16854,1940.4L16910,1946.41L16972,1954.35L17030,1962.93L17094,1973.66L17182,1990.61L17262,2008.88L17386,2041.42L17476,2066.97L17478,2066.9L17480,2068.17L17534,2084.88L17600,2097.77L17648,2110.12" style="fill:none;stroke:#f9f9f9;stroke-width:1.5;" />
        <path d="M16624,1554.82L16678,1575.71L16726,1595.9L16774,1617.92L16822,1641.84L16908,1643.15L16938,1645.07L16988,1650.89L17036,1659.17L17098,1673.15L17154,1688.28L17286,1722.17L17342,1738.3L17386,1753.3L17422,1767.8L17454,1782.78L17486,1800.1L17514,1817.76L17542,1838.79L17570,1862.56L17602,1892.1L17648,1936.71" style="fill:none;stroke:#f9f9f9;stroke-width:1.5;" />
        <path d="M16624,1490.4L16674,1484.41L16712,1485.74L16720,1483.92L16750,1483.93L16770,1479.4L16796,1478.94L16814,1478.71L16826,1480.14L16850,1480.63L16912,1479.79L16918,1480.31L16956,1479.16L16966,1480.45L16994,1481.5L17010,1484.16L17052,1483.13L17070,1486.59L17090,1487.41L17142,1492.97L17148,1493.41L17166,1492.18L17190,1494.49L17216,1495.68L17250,1501.94L17320,1503.17L17364,1509.33L17432,1511.98L17518,1523.98L17582,1528.98L17600,1532.81L17626,1527.64L17648,1533.33" style="fill:none;stroke:#f9f9f9;stroke-width:1.5;" />
        <path d="M17012,1484.65L17022,1486.76L17034,1486.72" style="fill:none;stroke:#f9f9f9;stroke-width:1.5;" />
        <path d="M17150,1868.88L17266,1929.97L17314,1956.76L17362,1984.75L17390,2002.55L17418,2021.9L17458,2051.51L17478,2067.57" style="fill:none;stroke:#f9f9f9;stroke-width:1.5;" />
        <path d="M17166,1647.18L17174,1646.45" style="fill:none;stroke:#f9f9f9;stroke-width:1.5;" />
        <path d="M17400,1580.45L17402,1579.99" style="fill:none;stroke:#f9f9f9;stroke-width:1.5;" />
        <path d="M17406,1579.1L17432,1574.31L17446,1575.42L17460,1580.09" style="fill:none;stroke:#f9f9f9;stroke-width:1.5;" />
        <path d="M17558,1535.73L17570,1535.8" style="fill:none;stroke:#f9f9f9;stroke-width:1.5;" />
        <path d="M17584,1535.59L17598,1533.19" style="fill:none;stroke:#f9f9f9;stroke-width:1.5;" />
        <path d="M17618,1806.54L17636,1801.79L17648,1799.81" style="fill:none;stroke:#f9f9f9;stroke-width:1.5;" />
        <path d="M17648,1533.33L17668,1537.67L17686,1539.61L17702,1543.65L17738,1545.52L17766,1554.71L17782,1556.48L17798,1560.55L17816,1563.46L17826,1567.35L17828,1567.58L17854,1562.2L17872,1562.74L17884,1563.91L17944,1580.76L17962,1577.74L17990,1577.06L18000,1578.56L18020,1584.1L18042,1587.07L18060,1591.56L18072,1593.35L18120,1594.58L18156,1598.22L18172,1595.81L18174,1596.13L18190,1606.23L18200,1610.71L18202,1610.33L18230,1590.76L18270,1574.9L18286,1570.91L18298,1566.63L18326,1555.09L18336,1554.45L18340,1553.1L18458,1555.45L18478,1557.47L18496,1562.18L18520,1566.67L18538,1568.44L18548,1570.67L18596,1584.71L18614,1589.11L18632,1590.89L18648,1593.62L18672,1594.1" style="fill:none;stroke:#f9f9f9;stroke-width:1.5;" />
        <path d="M17648,2110.12L17702,2127.64L17762,2150.64L17822,2176.26L17910,2216.28L17964,2238.95L18060,2255.01L18142,2270.47L18240,2290.74L18382,2321.77L18672,2373.6" style="fill:none;stroke:#f9f9f9;stroke-width:1.5;" />
        <path d="M17648,1936.71L17710,1995.32L17734,2015.95L17754,2031.64L17782,2047.78L17814,2063.58L17846,2077.19L17882,2090.16" style="fill:none;stroke:#f9f9f9;stroke-width:1.5;" />
        <path d="M17648,1533.33L17666,1537.36L17688,1540.13L17714,1546.46L17746,1549.94L17758,1554.62L17782,1556.48L17790,1558.02L17830,1574.56L17834,1576.72L17846,1585.79L17854,1589.06L17898,1597.37L17930,1601.33L17942,1605.24L17966,1608.71L18012,1620L18058,1624.45L18110,1639.63L18118,1638.72L18152,1630.56L18172,1628.54L18220,1630L18256,1626.01L18284,1624.25L18316,1624.76L18372,1622.62L18392,1623.07L18414,1621.74L18430,1622.75L18444,1626.68L18464,1634.76L18482,1639.8L18508,1643L18546,1651.03L18580,1654.87L18598,1658.44L18618,1665.63L18672,1690.44" style="fill:none;stroke:#f9f9f9;stroke-width:1.5;" />
        <path d="M17688,1719.83L17716,1713.15" style="fill:none;stroke:#f9f9f9;stroke-width:1.5;" />
        <path d="M17704,1544.02L17738,1545.52L17758,1552.5L17770,1555.46" style="fill:none;stroke:#f9f9f9;stroke-width:1.5;" />
        <path d="M17790,1705.68L17818,1708.3L17872,1696.19L17896,1692.85L17918,1690.78L17928,1690.31L17966,1691.42L17976,1690.83L17990,1691.82L18000,1694.18L18030,1703.62L18056,1708.8L18074,1711.39L18104,1713.33L18140,1717.16L18168,1722.05L18196,1730.85L18254,1753.99" style="fill:none;stroke:#f9f9f9;stroke-width:1.5;" />
        <path d="M17796,1560.24L17816,1563.46L17826,1567.35" style="fill:none;stroke:#f9f9f9;stroke-width:1.5;" />
        <path d="M17798,1568.38L17806,1570.78L17846,1586.12" style="fill:none;stroke:#f9f9f9;stroke-width:1.5;" />
        <path d="M17820,1569.45L17854,1562.2L17884,1563.91L17962,1585.64L17984,1594.9" style="fill:none;stroke:#f9f9f9;stroke-width:1.5;" />
        <path d="M17836,2220.04L17962,2238.63" style="fill:none;stroke:#f9f9f9;stroke-width:1.5;" />
        <path d="M17912,1801.07L17950,1807.19L17990,1812.44" style="fill:none;stroke:#f9f9f9;stroke-width:1.5;" />
        <path d="M17932,1601.37L17958,1604.1L18006,1612.9L18022,1621.09" style="fill:none;stroke:#f9f9f9;stroke-width:1.5;" />
        <path d="M17944,1580.76L17964,1577.59L17990,1577.06L18000,1578.56L18020,1584.1L18042,1587.07L18060,1591.56L18072,1593.35L18120,1594.58L18156,1598.22L18172,1595.81L18174,1596.13L18190,1606.23L18200,1610.71" style="fill:none;stroke:#f9f9f9;stroke-width:1.5;" />
        <path d="M18016,1591.75L18030,1592.17L18040,1593.5L18066,1601.01" style="fill:none;stroke:#f9f9f9;stroke-width:1.5;" />
        <path d="M18074,1603.56L18104,1614.37" style="fill:none;stroke:#f9f9f9;stroke-width:1.5;" />
        <path d="M18112,1639.52L18122,1637.76" style="fill:none;stroke:#f9f9f9;stroke-width:1.5;" />
        <path d="M18114,1625.42L18136,1625.22L18144,1626.67L18146,1626.4L18150,1627.94L18160,1628.52" style="fill:none;stroke:#f9f9f9;stroke-width:1.5;" />
        <path d="M18134,1623.21L18150,1627.96" style="fill:none;stroke:#f9f9f9;stroke-width:1.5;" />
        <path d="M18162,1628.96L18184,1621.27L18196,1614.53L18230,1590.76L18270,1574.9L18286,1570.91L18298,1566.63L18326,1555.09L18336,1554.45L18340,1553.1L18458,1555.45L18478,1557.47L18496,1562.18L18520,1566.67L18538,1568.44L18548,1570.67L18596,1584.71L18614,1589.11L18632,1590.89L18648,1593.62L18672,1594.1" style="fill:none;stroke:#f9f9f9;stroke-width:1.5;" />
        <path d="M18660,1599.3L18672,1597.66" style="fill:none;stroke:#f9f9f9;stroke-width:1.5;" />
        <path d="M18672,1594.1L18690,1594.33L18706,1591.35L18734,1588.12L18740,1588.56L18752,1587.43L18798,1589.34L18816,1591.65L18828,1590.54L18836,1588.63L18846,1589.13L18870,1587.98L18888,1584.8L18926,1574.85L18944,1572.8L18972,1564.99L18994,1557.73L19018,1553.45L19040,1547.85L19076,1545.43L19112,1538.22L19126,1536.91L19136,1534.3L19150,1536.21L19156,1534.64L19174,1535.44L19210,1540.04L19244,1547.46L19258,1548.64L19274,1553.74L19300,1559.73L19382,1572.88L19424,1583.69L19456,1588.62L19510,1591.9L19526,1588.77L19550,1582.51L19578,1590.38L19600,1593.69L19696,1595.42" style="fill:none;stroke:#f9f9f9;stroke-width:1.5;" />
        <path d="M18672,2373.6L18764,2390.72L18846,2407.02L18910,2401.05L18962,2398.36L19020,2398.52L19054,2400.52L19078,2402.86L19118,2408.39L19166,2417.34L19218,2429.42L19274,2444.53L19318,2447.74L19364,2452.32L19506,2470.09" style="fill:none;stroke:#f9f9f9;stroke-width:1.5;" />
        <path d="M18672,1690.44L18702,1702.86L18714,1709.06L18726,1716.55L18742,1729.17L18774,1760.24L18810,1785.35L18824,1792.39" style="fill:none;stroke:#f9f9f9;stroke-width:1.5;" />
        <path d="M18672,1597.66L18704,1591.68L18734,1588.12L18740,1588.56L18752,1587.43L18794,1589.11L18816,1591.65L18828,1590.54L18836,1588.63L18846,1589.13L18870,1587.98L18888,1584.8L18926,1574.85L18944,1572.8L18972,1564.99L18994,1557.73L19018,1553.45L19040,1547.85L19076,1545.43L19112,1538.22L19126,1536.91L19136,1534.3L19150,1536.21L19156,1534.64L19174,1535.44L19210,1540.04L19244,1547.46L19258,1548.64L19274,1553.74L19300,1559.73L19382,1572.88L19424,1583.69L19456,1588.62L19510,1591.9L19526,1588.77L19550,1582.51L19578,1590.38L19600,1593.69L19696,1595.42" style="fill:none;stroke:#f9f9f9;stroke-width:1.5;" />
        <path d="M18672,1594.1L18688,1594.1" style="fill:none;stroke:#f9f9f9;stroke-width:1.5;" />
        <path d="M18848,2407.44L18918,2422.65" style="fill:none;stroke:#f9f9f9;stroke-width:1.5;" />
        <path d="M19276,2445.1L19314,2456.26" style="fill:none;stroke:#f9f9f9;stroke-width:1.5;" />
        <path d="M19662,1605.56L19682,1611.36" style="fill:none;stroke:#f9f9f9;stroke-width:1.5;" />
        <path d="M19696,1595.42L19732,1597.18L19738,1596.54L19776,1597.21L19812,1596.07L19822,1597.2L19870,1607.24L19882,1612L19910,1619.42L19930,1627.57L19970,1634.34L20002,1643.69L20010,1644.52L20020,1648L20078,1644.74L20094,1641.56L20106,1638.26L20126,1636.52L20154,1643.27L20170,1644.79L20178,1644.78L20200,1642.34L20226,1634.74L20246,1632.01L20262,1626.23L20276,1624.46L20298,1617.26L20330,1616.4L20352,1619.65L20360,1622.23L20402,1611.96L20426,1605.27L20454,1600.3L20488,1591.27L20496,1590.56L20526,1591.86L20550,1594.43L20612,1606.95L20630,1612.92L20636,1612.38L20644,1613.47L20668,1619.05L20672,1619.45L20698,1616.06L20720,1615.84" style="fill:none;stroke:#f9f9f9;stroke-width:1.5;" />
        <path d="M19696,1595.42L19732,1597.18L19738,1596.54L19776,1597.21L19812,1596.07L19822,1597.2L19870,1607.24L19882,1612L19910,1619.42L19930,1627.57L19970,1634.34L20002,1643.69L20010,1644.52L20020,1648L20078,1644.74L20094,1641.56L20106,1638.26L20126,1636.52L20154,1643.27L20170,1644.79L20192,1643.94L20210,1639.85L20226,1634.74L20246,1632.01L20262,1626.23L20276,1624.46L20298,1617.26L20330,1616.4L20352,1619.65L20376,1627.29L20398,1628.3L20444,1627.76L20504,1623.15L20526,1625.33L20542,1623.1L20566,1615.34L20604,1612.56L20628,1613.13L20634,1612.47L20644,1613.47L20668,1619.05L20694,1622.9L20700,1623.4L20720,1622.86" style="fill:none;stroke:#f9f9f9;stroke-width:1.5;" />
        <path d="M19798,1623.4L19822,1624.03L19826,1624.79" style="fill:none;stroke:#f9f9f9;stroke-width:1.5;" />
        <path d="M19856,1630.76L19870,1632.59L19894,1632.99L19918,1645.71" style="fill:none;stroke:#f9f9f9;stroke-width:1.5;" />
        <path d="M19922,1646.52L19926,1647.2L19940,1653.68" style="fill:none;stroke:#f9f9f9;stroke-width:1.5;" />
        <path d="M20178,1644.78L20194,1643.54" style="fill:none;stroke:#f9f9f9;stroke-width:1.5;" />
        <path d="M20362,1621.86L20426,1605.27L20454,1600.3L20488,1591.27L20496,1590.56L20526,1591.86L20550,1594.43L20612,1606.95L20628,1612.38" style="fill:none;stroke:#f9f9f9;stroke-width:1.5;" />
        <path d="M20372,1644.06L20380,1645.94" style="fill:none;stroke:#f9f9f9;stroke-width:1.5;" />
        <path d="M20672,1619.45L20692,1616.36L20720,1615.84" style="fill:none;stroke:#f9f9f9;stroke-width:1.5;" />
</g>
<g id="section5">
        <path d="M20720,1615.84L20748,1616.63L20764,1619.74L20782,1619.46L20788,1618.27L20818,1615.64L20850,1615.71L20860,1612.81L20872,1607.81L20890,1606.63L20910,1614.28L20924,1616.15L20946,1621.76L20962,1616.39L20996,1606.88L21008,1608.91L21036,1620.23L21060,1623.11L21068,1624.78L21080,1632.19L21088,1634.37L21100,1635.89L21108,1634.57L21124,1629.73L21144,1633.09L21166,1632.91L21188,1634.74L21202,1634.92L21226,1632.3L21238,1629.33L21256,1630.72L21280,1637.53L21300,1648.45L21318,1651.66L21336,1657.62L21348,1657.49L21362,1665.28L21384,1671.22L21398,1673.71L21408,1676.45L21434,1696.79L21442,1701.95L21450,1709.7L21462,1711.19L21480,1709.42L21486,1709.53L21510,1715.1L21520,1719.94L21536,1723.21L21540,1724.81L21544,1725.04L21550,1727.8L21564,1730.27L21578,1734.09L21592,1735.87L21612,1742.4L21620,1743.92L21654,1746.51L21744,1746.76" style="fill:none;stroke:#f9f9f9;stroke-width:1.5;" />
        <path d="M20720,1622.86L20766,1619.63L20782,1619.46L20788,1618.27L20818,1615.64L20850,1615.71L20860,1612.81L20872,1607.81L20892,1606.97L20910,1614.28L20924,1616.15L20958,1624.45L20974,1629.22L20990,1635.83L21016,1644.32L21044,1649.92L21048,1651.4L21060,1656.71L21084,1669.4L21150,1699.08L21166,1707.52L21180,1710.41L21194,1714.78L21214,1722.68L21230,1727.52L21258,1737.8L21298,1765.6L21310,1771.15L21322,1774.29" style="fill:none;stroke:#f9f9f9;stroke-width:1.5;" />
        <path d="M20720,1615.84L20748,1616.63L20762,1619.36" style="fill:none;stroke:#f9f9f9;stroke-width:1.5;" />
        <path d="M20918,1757.82L20942,1766.69L20964,1765.45L20970,1766.92L20990,1775.2L21006,1780.17" style="fill:none;stroke:#f9f9f9;stroke-width:1.5;" />
        <path d="M20948,1621.14L20962,1616.39L20996,1606.88L21008,1608.91L21038,1620.76L21060,1623.11L21068,1624.78L21080,1632.19L21092,1635.03L21124,1638.16L21166,1638.82L21180,1640.44L21206,1645.4L21224,1644.32L21238,1640.22L21252,1642.38L21266,1646.91L21270,1646.86L21276,1648.44L21286,1654.86L21294,1658.04L21314,1668.38L21322,1670.98L21346,1684.34L21370,1700.48L21430,1736.31L21442,1744.79L21458,1754.63L21470,1760.62L21482,1764.52" style="fill:none;stroke:#f9f9f9;stroke-width:1.5;" />
        <path d="M21090,1634.89L21098,1637.5L21118,1649.47L21138,1663.29L21150,1673.9" style="fill:none;stroke:#f9f9f9;stroke-width:1.5;" />
        <path d="M21102,1635.95L21124,1629.73L21144,1633.09L21166,1632.91L21206,1635.66L21230,1642.18" style="fill:none;stroke:#f9f9f9;stroke-width:1.5;" />
        <path d="M21202,1635.16L21204,1634.43L21222,1633.07L21238,1629.33L21256,1630.72L21280,1637.53L21300,1648.45L21318,1651.66L21336,1657.62L21348,1657.49L21362,1665.28L21384,1671.22L21398,1673.71L21408,1676.45L21434,1696.79L21442,1701.95L21458,1717.13L21472,1728.44L21480,1732.01L21486,1733.24L21510,1741.69L21536,1749.26L21564,1760.28" style="fill:none;stroke:#f9f9f9;stroke-width:1.5;" />
        <path d="M21204,1759.36L21224,1761.47L21242,1767.76L21260,1771.43L21292,1773.08L21310,1775.84" style="fill:none;stroke:#f9f9f9;stroke-width:1.5;" />
        <path d="M21306,1650.13L21308,1650.39" style="fill:none;stroke:#f9f9f9;stroke-width:1.5;" />
        <path d="M21434,1734.28L21442,1736.72L21460,1749.71" style="fill:none;stroke:#f9f9f9;stroke-width:1.5;" />
        <path d="M21452,1710.1L21462,1711.19L21480,1709.42L21486,1709.53L21510,1715.1L21520,1719.94L21536,1723.21L21540,1724.81L21544,1725.04L21550,1727.8L21564,1730.27L21578,1734.09L21592,1735.87L21616,1743.14" style="fill:none;stroke:#f9f9f9;stroke-width:1.5;" />
        <path d="M21468,1725.39L21474,1724.51L21486,1724.82L21510,1733.9L21516,1738.85L21524,1742.48" style="fill:none;stroke:#f9f9f9;stroke-width:1.5;" />
        <path d="M21478,1731.38L21502,1746.96L21534,1761.17" style="fill:none;stroke:#f9f9f9;stroke-width:1.5;" />
        <path d="M21578,1734.2L21582,1734.97L21588,1737.66" style="fill:none;stroke:#f9f9f9;stroke-width:1.5;" />
        <path d="M21744,1746.76L22768,1746.78" style="fill:none;stroke:#f9f9f9;stroke-width:1.5;" />
        <path d="M22768,1746.78L23792,1746.78" style="fill:none;stroke:#f9f9f9;stroke-width:1.5;" />
        <path d="M23792,1746.78L24816,1746.78" style="fill:none;stroke:#f9f9f9;stroke-width:1.5;" />
        <path d="M24816,1746.78L25840,1746.78" style="fill:none;stroke:#f9f9f9;stroke-width:1.5;" />
</g>
<g id="section6">
        <path d="M24816,1746.78L25840,1746.78" style="fill:none;stroke:#f9f9f9;stroke-width:1.5;" />
        <path d="M25840,1746.78L26864,1746.78" style="fill:none;stroke:#f9f9f9;stroke-width:1.5;" />
        <path d="M26864,1746.78L27888,1746.78" style="fill:none;stroke:#f9f9f9;stroke-width:1.5;" />
        <path d="M27888,1746.78L28912,1746.78" style="fill:none;stroke:#f9f9f9;stroke-width:1.5;" />
        <path d="M28912,1746.78L29936,1746.78" style="fill:none;stroke:#f9f9f9;stroke-width:1.5;" />
</g>
<g id="section7">
        <path d="M28912,1746.78L29936,1746.78" style="fill:none;stroke:#f9f9f9;stroke-width:1.5;" />
        <path d="M29936,1746.78L30960,1746.78" style="fill:none;stroke:#f9f9f9;stroke-width:1.5;" />
        <path d="M30960,1746.78L31984,1746.78" style="fill:none;stroke:#f9f9f9;stroke-width:1.5;" />
        <path d="M31984,1746.78L33006,1746.78" style="fill:none;stroke:#f9f9f9;stroke-width:1.5;" />
        <path d="M239.998,1746.78L1264,1746.78" style="fill:none;stroke:#f9f9f9;stroke-width:1.5;" />
</g>
</g>
<g id="labels">
<g id="prominent">
<g id="lines" style="fill:none;stroke:#ffffff;stroke-width:2.400000">
        <line x1="5192.38" y1="805" x2="5192.38" y2="1725.96" />
        <line x1="5362.4" y1="805" x2="5362.4" y2="1733.28" />
        <line x1="5506.39" y1="805" x2="5506.39" y2="1749.49" />
        <line x1="5679.62" y1="805" x2="5679.62" y2="1725" />
        <line x1="5865.38" y1="805" x2="5865.38" y2="1734.98" />
        <line x1="5979.98" y1="805" x2="5979.98" y2="1737.5" />
        <line x1="6078.81" y1="805" x2="6078.81" y2="1724.22" />
        <line x1="6237.64" y1="805" x2="6237.64" y2="1729.21" />
        <line x1="6981.47" y1="805" x2="6981.47" y2="1614.06" />
        <line x1="7214.81" y1="805" x2="7214.81" y2="1591.13" />
        <line x1="7385.59" y1="805" x2="7385.59" y2="1616.36" />
        <line x1="11870.3" y1="805" x2="11870.3" y2="1166.89" />
        <line x1="16937.8" y1="805" x2="16937.8" y2="1481.13" />
        <line x1="17068" y1="805" x2="17068" y2="1483.95" />
        <line x1="18359.2" y1="805" x2="18359.2" y2="1624.88" />
        <line x1="19050.9" y1="805" x2="19050.9" y2="1807.49" />
        <line x1="20501.2" y1="805" x2="20501.2" y2="1591.27" />
        <line x1="20609" y1="805" x2="20609" y2="1612.84" />
        <line x1="20905.7" y1="805" x2="20905.7" y2="1756.01" />
        <line x1="21558.7" y1="805" x2="21558.7" y2="1729.11" />
</g>
<g id="texts" style="font-family:Helvetica Neue,Helvetica,sans-serif;font-weight:500;font-size:51.2;stroke:none;fill:#f9f9f9;">
        <text x="5192.38" y="800" transform="rotate(-45 5192.38,800)">A Aguia de Terra <tspan class="elev">52</tspan> <tspan class="dist">7.6</tspan> <tspan class="latlng">43.36031°N, 8.83417°W</tspan> <tspan class="azi">54.4°</tspan></text>
        <text x="5362.4" y="800" transform="rotate(-45 5362.4,800)">O Talieiro <tspan class="elev">41</tspan> <tspan class="dist">7.5</tspan> <tspan class="latlng">43.35801°N, 8.83342°W</tspan> <tspan class="azi">56.3°</tspan></text>
        <text x="5506.39" y="800" transform="rotate(-45 5506.39,800)">O Cribo <tspan class="elev">16</tspan> <tspan class="dist">7.2</tspan> <tspan class="latlng">43.35538°N, 8.83438°W</tspan> <tspan class="azi">57.9°</tspan></text>
        <text x="5679.62" y="800" transform="rotate(-45 5679.62,800)">Vixía da Herbeira <tspan class="elev">611</tspan> <tspan class="dist">89.9</tspan> <tspan class="latlng">43.72360°N, 7.94584°W</tspan> <tspan class="azi">59.8°</tspan></text>
        <text x="5865.38" y="800" transform="rotate(-45 5865.38,800)">Alto de Campelo <tspan class="elev">250</tspan> <tspan class="dist">64.1</tspan> <tspan class="latlng">43.59061°N, 8.21084°W</tspan> <tspan class="azi">61.8°</tspan></text>
        <text x="5979.98" y="800" transform="rotate(-45 5979.98,800)">Coto das Penas <tspan class="elev">204</tspan> <tspan class="dist">62.7</tspan> <tspan class="latlng">43.57392°N, 8.21797°W</tspan> <tspan class="azi">63.1°</tspan></text>
        <text x="6078.81" y="800" transform="rotate(-45 6078.81,800)">Pena Grande <tspan class="elev">303</tspan> <tspan class="dist">60.1</tspan> <tspan class="latlng">43.55441°N, 8.24028°W</tspan> <tspan class="azi">64.1°</tspan></text>
        <text x="6237.64" y="800" transform="rotate(-45 6237.64,800)">A Lagoa <tspan class="elev">231</tspan> <tspan class="dist">55.1</tspan> <tspan class="latlng">43.52117°N, 8.28828°W</tspan> <tspan class="azi">65.9°</tspan></text>
        <text x="6981.47" y="800" transform="rotate(-45 6981.47,800)">O Castro <tspan class="elev">158</tspan> <tspan class="dist">5.6</tspan> <tspan class="latlng">43.33461°N, 8.84337°W</tspan> <tspan class="azi">74.1°</tspan></text>
        <text x="7214.81" y="800" transform="rotate(-45 7214.81,800)">Beo <tspan class="elev">181</tspan> <tspan class="dist">6.1</tspan> <tspan class="latlng">43.33331°N, 8.83749°W</tspan> <tspan class="azi">76.6°</tspan></text>
        <text x="7385.59" y="800" transform="rotate(-45 7385.59,800)">Monte de Beo <tspan class="elev">152</tspan> <tspan class="dist">5.6</tspan> <tspan class="latlng">43.33082°N, 8.84202°W</tspan> <tspan class="azi">78.5°</tspan></text>
        <text x="11870.3" y="800" transform="rotate(-45 11870.3,800)">Pedra da Vela <tspan class="elev">209</tspan> <tspan class="dist">1.8</tspan> <tspan class="latlng">43.31071°N, 8.89232°W</tspan> <tspan class="azi">127.8°</tspan></text>
        <text x="16937.8" y="800" transform="rotate(-45 16937.8,800)">Monte da Barda <tspan class="elev">213</tspan> <tspan class="dist">4.2</tspan> <tspan class="latlng">43.28277°N, 8.91324°W</tspan> <tspan class="azi">183.4°</tspan></text>
        <text x="17068" y="800" transform="rotate(-45 17068,800)">Monte do Faro <tspan class="elev">229</tspan> <tspan class="dist">4.7</tspan> <tspan class="latlng">43.27890°N, 8.91500°W</tspan> <tspan class="azi">184.9°</tspan></text>
        <text x="18359.2" y="800" transform="rotate(-45 18359.2,800)">Alto de Monte Meán <tspan class="elev">107</tspan> <tspan class="dist">3.6</tspan> <tspan class="latlng">43.29050°N, 8.92444°W</tspan> <tspan class="azi">199.1°</tspan></text>
        <text x="19050.9" y="800" transform="rotate(-45 19050.9,800)">Pé do Muíño <tspan class="elev">1</tspan> <tspan class="dist">3.4</tspan> <tspan class="latlng">43.29352°N, 8.92886°W</tspan> <tspan class="azi">206.7°</tspan></text>
        <text x="20501.2" y="800" transform="rotate(-45 20501.2,800)">Alto das Vixías <tspan class="elev">186</tspan> <tspan class="dist">6.3</tspan> <tspan class="latlng">43.27940°N, 8.96223°W</tspan> <tspan class="azi">222.6°</tspan></text>
        <text x="20609" y="800" transform="rotate(-45 20609,800)">Alve <tspan class="elev">142</tspan> <tspan class="dist">5.2</tspan> <tspan class="latlng">43.28671°N, 8.95484°W</tspan> <tspan class="azi">223.8°</tspan></text>
        <text x="20905.7" y="800" transform="rotate(-45 20905.7,800)">Eiras <tspan class="elev">26</tspan> <tspan class="dist">4.6</tspan> <tspan class="latlng">43.29269°N, 8.95143°W</tspan> <tspan class="azi">227.0°</tspan></text>
        <text x="21558.7" y="800" transform="rotate(-45 21558.7,800)">Petón do Boi - Petón del Buey <tspan class="elev">83</tspan> <tspan class="dist">26.1</tspan> <tspan class="latlng">43.18332°N, 9.17058°W</tspan> <tspan class="azi">234.2°</tspan></text>
</g>
</g>
<g id="all_hidden" style="opacity:0">
<g id="lines" style="fill:none;stroke:#ffffff;stroke-width:2.400000">
        <line x1="5192.38" y1="805" x2="5192.38" y2="1725.96" />
        <line x1="5362.4" y1="805" x2="5362.4" y2="1733.28" />
        <line x1="5506.39" y1="805" x2="5506.39" y2="1749.49" />
        <line x1="5617.23" y1="805" x2="5617.23" y2="1742.8" />
        <line x1="5644.78" y1="805" x2="5644.78" y2="1732.56" />
        <line x1="5679.62" y1="805" x2="5679.62" y2="1725" />
        <line x1="5686.5" y1="805" x2="5686.5" y2="1726.08" />
        <line x1="5705.53" y1="805" x2="5705.53" y2="1741.38" />
        <line x1="5756.75" y1="805" x2="5756.75" y2="1733.46" />
        <line x1="5865.38" y1="805" x2="5865.38" y2="1734.98" />
        <line x1="5901" y1="805" x2="5901" y2="1736.12" />
        <line x1="5979.98" y1="805" x2="5979.98" y2="1737.5" />
        <line x1="6007.41" y1="805" x2="6007.41" y2="1728.97" />
        <line x1="6076.65" y1="805" x2="6076.65" y2="1724.01" />
        <line x1="6078.81" y1="805" x2="6078.81" y2="1724.22" />
        <line x1="6088.37" y1="805" x2="6088.37" y2="1726.55" />
        <line x1="6145.01" y1="805" x2="6145.01" y2="1726.87" />
        <line x1="6184.85" y1="805" x2="6184.85" y2="1740.59" />
        <line x1="6237.64" y1="805" x2="6237.64" y2="1729.21" />
        <line x1="6981.47" y1="805" x2="6981.47" y2="1614.06" />
        <line x1="7214.81" y1="805" x2="7214.81" y2="1591.13" />
        <line x1="7385.59" y1="805" x2="7385.59" y2="1616.36" />
        <line x1="11870.3" y1="805" x2="11870.3" y2="1166.89" />
        <line x1="16937.8" y1="805" x2="16937.8" y2="1481.13" />
        <line x1="17068" y1="805" x2="17068" y2="1483.95" />
        <line x1="18359.2" y1="805" x2="18359.2" y2="1624.88" />
        <line x1="19050.9" y1="805" x2="19050.9" y2="1807.49" />
        <line x1="20501.2" y1="805" x2="20501.2" y2="1591.27" />
        <line x1="20609" y1="805" x2="20609" y2="1612.84" />
        <line x1="20905.7" y1="805" x2="20905.7" y2="1756.01" />
        <line x1="21558.7" y1="805" x2="21558.7" y2="1729.11" />
</g>
<g id="texts" style="font-family:Helvetica Neue,Helvetica,sans-serif;font-weight:500;font-size:51.2;stroke:none;fill:#f9f9f9;">
        <text x="5192.38" y="800" transform="rotate(-45 5192.38,800)">A Aguia de Terra <tspan class="elev">52</tspan> <tspan class="dist">7.6</tspan> <tspan class="latlng">43.36031°N, 8.83417°W</tspan> <tspan class="azi">54.4°</tspan></text>
        <text x="5362.4" y="800" transform="rotate(-45 5362.4,800)">O Talieiro <tspan class="elev">41</tspan> <tspan class="dist">7.5</tspan> <tspan class="latlng">43.35801°N, 8.83342°W</tspan> <tspan class="azi">56.3°</tspan></text>
        <text x="5506.39" y="800" transform="rotate(-45 5506.39,800)">O Cribo <tspan class="elev">16</tspan> <tspan class="dist">7.2</tspan> <tspan class="latlng">43.35538°N, 8.83438°W</tspan> <tspan class="azi">57.9°</tspan></text>
        <text x="5617.23" y="800" transform="rotate(-45 5617.23,800)">O Gordo <tspan class="elev">28</tspan> <tspan class="dist">7.2</tspan> <tspan class="latlng">43.35412°N, 8.83357°W</tspan> <tspan class="azi">59.1°</tspan></text>
        <text x="5644.78" y="800" transform="rotate(-45 5644.78,800)">A Garita do Limo <tspan class="elev">554</tspan> <tspan class="dist">93.8</tspan> <tspan class="latlng">43.74560°N, 7.90805°W</tspan> <tspan class="azi">59.4°</tspan></text>
        <text x="5679.62" y="800" transform="rotate(-45 5679.62,800)">Vixía da Herbeira <tspan class="elev">611</tspan> <tspan class="dist">89.9</tspan> <tspan class="latlng">43.72360°N, 7.94584°W</tspan> <tspan class="azi">59.8°</tspan></text>
        <text x="5686.5" y="800" transform="rotate(-45 5686.5,800)">Serra da Capelada <tspan class="elev">574</tspan> <tspan class="dist">89.3</tspan> <tspan class="latlng">43.71980°N, 7.95215°W</tspan> <tspan class="azi">59.8°</tspan></text>
        <text x="5705.53" y="800" transform="rotate(-45 5705.53,800)">Penedo Negro <tspan class="elev">274</tspan> <tspan class="dist">78.9</tspan> <tspan class="latlng">43.67138°N, 8.06287°W</tspan> <tspan class="azi">60.0°</tspan></text>
        <text x="5756.75" y="800" transform="rotate(-45 5756.75,800)">Pico Reboredo <tspan class="elev">424</tspan> <tspan class="dist">84.7</tspan> <tspan class="latlng">43.69051°N, 7.99485°W</tspan> <tspan class="azi">60.6°</tspan></text>
        <text x="5865.38" y="800" transform="rotate(-45 5865.38,800)">Alto de Campelo <tspan class="elev">250</tspan> <tspan class="dist">64.1</tspan> <tspan class="latlng">43.59061°N, 8.21084°W</tspan> <tspan class="azi">61.8°</tspan></text>
        <text x="5901" y="800" transform="rotate(-45 5901,800)">Pena da Aguia <tspan class="elev">381</tspan> <tspan class="dist">82.6</tspan> <tspan class="latlng">43.66328°N, 8.00448°W</tspan> <tspan class="azi">62.2°</tspan></text>
        <text x="5979.98" y="800" transform="rotate(-45 5979.98,800)">Coto das Penas <tspan class="elev">204</tspan> <tspan class="dist">62.7</tspan> <tspan class="latlng">43.57392°N, 8.21797°W</tspan> <tspan class="azi">63.1°</tspan></text>
        <text x="6007.41" y="800" transform="rotate(-45 6007.41,800)">Montes da Lagoa <tspan class="elev">267</tspan> <tspan class="dist">61.1</tspan> <tspan class="latlng">43.56502°N, 8.23363°W</tspan> <tspan class="azi">63.4°</tspan></text>
        <text x="6076.65" y="800" transform="rotate(-45 6076.65,800)">Monte Lagoa <tspan class="elev">302</tspan> <tspan class="dist">60.0</tspan> <tspan class="latlng">43.55417°N, 8.24168°W</tspan> <tspan class="azi">64.1°</tspan></text>
        <text x="6078.81" y="800" transform="rotate(-45 6078.81,800)">Pena Grande <tspan class="elev">303</tspan> <tspan class="dist">60.1</tspan> <tspan class="latlng">43.55441°N, 8.24028°W</tspan> <tspan class="azi">64.1°</tspan></text>
        <text x="6088.37" y="800" transform="rotate(-45 6088.37,800)">O Peñón <tspan class="elev">278</tspan> <tspan class="dist">58.6</tspan> <tspan class="latlng">43.54772°N, 8.25657°W</tspan> <tspan class="azi">64.3°</tspan></text>
        <text x="6145.01" y="800" transform="rotate(-45 6145.01,800)">Monte Sabugueiro <tspan class="elev">275</tspan> <tspan class="dist">59.3</tspan> <tspan class="latlng">43.54514°N, 8.24543°W</tspan> <tspan class="azi">64.9°</tspan></text>
        <text x="6184.85" y="800" transform="rotate(-45 6184.85,800)">A Cocheira <tspan class="elev">134</tspan> <tspan class="dist">57.5</tspan> <tspan class="latlng">43.53467°N, 8.26382°W</tspan> <tspan class="azi">65.3°</tspan></text>
        <text x="6237.64" y="800" transform="rotate(-45 6237.64,800)">A Lagoa <tspan class="elev">231</tspan> <tspan class="dist">55.1</tspan> <tspan class="latlng">43.52117°N, 8.28828°W</tspan> <tspan class="azi">65.9°</tspan></text>
        <text x="6981.47" y="800" transform="rotate(-45 6981.47,800)">O Castro <tspan class="elev">158</tspan> <tspan class="dist">5.6</tspan> <tspan class="latlng">43.33461°N, 8.84337°W</tspan> <tspan class="azi">74.1°</tspan></text>
        <text x="7214.81" y="800" transform="rotate(-45 7214.81,800)">Beo <tspan class="elev">181</tspan> <tspan class="dist">6.1</tspan> <tspan class="latlng">43.33331°N, 8.83749°W</tspan> <tspan class="azi">76.6°</tspan></text>
        <text x="7385.59" y="800" transform="rotate(-45 7385.59,800)">Monte de Beo <tspan class="elev">152</tspan> <tspan class="dist">5.6</tspan> <tspan class="latlng">43.33082°N, 8.84202°W</tspan> <tspan class="azi">78.5°</tspan></text>
        <text x="11870.3" y="800" transform="rotate(-45 11870.3,800)">Pedra da Vela <tspan class="elev">209</tspan> <tspan class="dist">1.8</tspan> <tspan class="latlng">43.31071°N, 8.89232°W</tspan> <tspan class="azi">127.8°</tspan></text>
        <text x="16937.8" y="800" transform="rotate(-45 16937.8,800)">Monte da Barda <tspan class="elev">213</tspan> <tspan class="dist">4.2</tspan> <tspan class="latlng">43.28277°N, 8.91324°W</tspan> <tspan class="azi">183.4°</tspan></text>
        <text x="17068" y="800" transform="rotate(-45 17068,800)">Monte do Faro <tspan class="elev">229</tspan> <tspan class="dist">4.7</tspan> <tspan class="latlng">43.27890°N, 8.91500°W</tspan> <tspan class="azi">184.9°</tspan></text>
        <text x="18359.2" y="800" transform="rotate(-45 18359.2,800)">Alto de Monte Meán <tspan class="elev">107</tspan> <tspan class="dist">3.6</tspan> <tspan class="latlng">43.29050°N, 8.92444°W</tspan> <tspan class="azi">199.1°</tspan></text>
        <text x="19050.9" y="800" transform="rotate(-45 19050.9,800)">Pé do Muíño <tspan class="elev">1</tspan> <tspan class="dist">3.4</tspan> <tspan class="latlng">43.29352°N, 8.92886°W</tspan> <tspan class="azi">206.7°</tspan></text>
        <text x="20501.2" y="800" transform="rotate(-45 20501.2,800)">Alto das Vixías <tspan class="elev">186</tspan> <tspan class="dist">6.3</tspan> <tspan class="latlng">43.27940°N, 8.96223°W</tspan> <tspan class="azi">222.6°</tspan></text>
        <text x="20609" y="800" transform="rotate(-45 20609,800)">Alve <tspan class="elev">142</tspan> <tspan class="dist">5.2</tspan> <tspan class="latlng">43.28671°N, 8.95484°W</tspan> <tspan class="azi">223.8°</tspan></text>
        <text x="20905.7" y="800" transform="rotate(-45 20905.7,800)">Eiras <tspan class="elev">26</tspan> <tspan class="dist">4.6</tspan> <tspan class="latlng">43.29269°N, 8.95143°W</tspan> <tspan class="azi">227.0°</tspan></text>
        <text x="21558.7" y="800" transform="rotate(-45 21558.7,800)">Petón do Boi - Petón del Buey <tspan class="elev">83</tspan> <tspan class="dist">26.1</tspan> <tspan class="latlng">43.18332°N, 9.17058°W</tspan> <tspan class="azi">234.2°</tspan></text>
</g>
</g>
</g>
<g id="viewpoint" transform="translate(16624 3512)" style="font-family:Helvetica Neue;font-size:51.2;stroke:none;fill:#f9f9f9;">
<text text-anchor="middle" alignment-baseline="central">
  <tspan x="0" dy="0">43.32075°N, 8.91010°W</tspan>
</text>
</g>
<g id="logo" transform="translate(32592 3440) scale(1.6 1.6)">
<path d="M1.124 1.042h7.758c4.288 0 5.95 2.722 5.95 5.506 0 2.807-1.662 5.529-5.95 5.529H4.9v6.168H1.124V1.042ZM4.9 9.143h2.946c1.759 0 3.323-.391 3.323-2.595 0-2.18-1.564-2.567-3.323-2.567H4.9v5.162Zm14.267 3.705c.096 2.168 1.156 3.156 3.059 3.156 1.374 0 2.482-.853 2.699-1.615h3.011c-.963 2.938-3.011 4.193-5.83 4.193-3.931 0-6.36-2.698-6.36-6.553 0-3.734 2.578-6.573 6.36-6.573 4.241 0 6.289 3.55 6.047 7.392h-8.986Zm5.565-2.17c-.313-1.733-1.06-2.655-2.723-2.655-2.167 0-2.794 1.693-2.842 2.655h5.565Zm5.901-1.06c.192-3.204 3.059-4.162 5.854-4.162 2.481 0 5.468.549 5.468 3.537v6.481c0 1.131.121 2.273.434 2.771H38.92c-.12-.39-.219-.796-.241-1.204-1.085 1.131-2.674 1.541-4.192 1.541-2.36 0-4.239-1.181-4.239-3.734 0-2.818 2.12-3.492 4.239-3.783 2.097-.314 4.048-.241 4.048-1.638 0-1.47-1.012-1.687-2.217-1.687-1.305 0-2.144.529-2.265 1.879h-3.42v-.001Zm7.902 2.532c-.579.505-1.783.529-2.844.72-1.059.22-2.03.581-2.03 1.832 0 1.278.995 1.592 2.103 1.592 2.674 0 2.771-2.126 2.771-2.869V12.15Zm6.984-11.108h3.421v9.227l4.312-4.48h4.049l-4.699 4.584 5.228 7.872h-4.143l-3.422-5.566-1.325 1.277v4.289h-3.421V1.042Zm14.213 0h11.293v1.927H62.02v5.469h7.899v1.935H62.02v7.872h-2.288V1.042Zm15.537 2.506H73.22V1.042h2.049v2.506Zm-2.049 2.24h2.049v12.457H73.22V5.788Zm5.829 0h1.928v1.977h.048c.867-1.542 2.265-2.266 4.049-2.266 3.275 0 4.287 1.879 4.287 4.554v8.192h-2.048V9.812c0-1.517-.963-2.507-2.529-2.507-2.482 0-3.687 1.663-3.687 3.903v7.037h-2.048V5.788Zm24.646 12.457h-2.049v-1.687h-.048c-.675 1.374-2.264 1.976-3.975 1.976-3.831 0-5.735-3.036-5.735-6.555 0-3.515 1.883-6.479 5.685-6.479 1.278 0 3.109.482 4.025 1.951h.048V1.042h2.049v17.203Zm-5.783-1.519c2.746 0 3.806-2.361 3.806-4.697 0-2.458-1.108-4.724-3.926-4.724-2.792 0-3.735 2.386-3.735 4.819.001 2.339 1.205 4.602 3.855 4.602Zm19.682-2.42c-.556 2.734-2.531 4.228-5.321 4.228-3.979 0-5.859-2.748-5.98-6.555 0-3.734 2.457-6.479 5.857-6.479 4.407 0 5.756 4.118 5.635 7.13h-9.322c-.075 2.169 1.154 4.096 3.877 4.096 1.686 0 2.867-.819 3.229-2.42h2.025Zm-1.977-3.483c-.096-1.951-1.571-3.518-3.588-3.518-2.145 0-3.422 1.615-3.565 3.518h7.153Zm4.816-5.035h1.928v2.628h.043c.993-2.003 2.365-2.989 4.582-2.916v2.168c-3.3 0-4.504 1.879-4.504 5.025v5.552h-2.049V5.788Z" style="fill:#f9f9f9;fill-rule:nonzero" transform="translate(-16.182 -2.023) scale(1.94116)"/>
<path d="m13.416 17.328 3.96-12.408h-2.112L12.48 15.072h-.048L9.84 4.92H7.608L5.112 15.072h-.048L2.256 4.92H0l3.984 12.408h2.208l2.496-9.864h.048l2.52 9.864h2.16ZM31.608 17.328l3.96-12.408h-2.112l-2.784 10.152h-.048L28.032 4.92H25.8l-2.496 10.152h-.048L20.448 4.92h-2.256l3.984 12.408h2.208l2.496-9.864h.048l2.52 9.864h2.16ZM49.8 17.328 53.76 4.92h-2.112l-2.784 10.152h-.048L46.224 4.92h-2.232l-2.496 10.152h-.048L38.64 4.92h-2.256l3.984 12.408h2.208l2.496-9.864h.048l2.52 9.864h2.16ZM54.84 14.664h2.664v2.664H54.84zM61.128 4.92v17.136h2.04v-6.384h.048c.224.368.5.676.828.924.328.248.676.444 1.044.588a6.132 6.132 0 0 0 2.136.408c.944 0 1.772-.168 2.484-.504a4.978 4.978 0 0 0 1.776-1.38 5.877 5.877 0 0 0 1.056-2.052 8.753 8.753 0 0 0 .348-2.496c0-.88-.12-1.712-.36-2.496a6.307 6.307 0 0 0-1.068-2.076 5.101 5.101 0 0 0-1.776-1.428c-.712-.352-1.548-.528-2.508-.528-.864 0-1.656.156-2.376.468a3.054 3.054 0 0 0-1.584 1.5h-.048V4.92h-2.04Zm9.6 6.096c0 .608-.064 1.2-.192 1.776a4.698 4.698 0 0 1-.624 1.536 3.28 3.28 0 0 1-1.14 1.08c-.472.272-1.06.408-1.764.408s-1.304-.132-1.8-.396a3.494 3.494 0 0 1-1.212-1.044 4.365 4.365 0 0 1-.684-1.5 7.15 7.15 0 0 1-.216-1.764c0-.576.068-1.144.204-1.704.136-.56.356-1.06.66-1.5.304-.44.696-.796 1.176-1.068s1.064-.408 1.752-.408c.656 0 1.228.128 1.716.384s.888.6 1.2 1.032c.312.432.544.924.696 1.476.152.552.228 1.116.228 1.692ZM83.904 9.936h-7.128a4.25 4.25 0 0 1 .312-1.356c.176-.424.416-.796.72-1.116.304-.32.668-.572 1.092-.756.424-.184.9-.276 1.428-.276a3.49 3.49 0 0 1 2.508 1.02c.312.312.56.684.744 1.116.184.432.292.888.324 1.368Zm1.968 3.456h-2.016c-.176.816-.54 1.424-1.092 1.824-.552.4-1.26.6-2.124.6-.672 0-1.256-.112-1.752-.336a3.434 3.434 0 0 1-1.224-.9 3.506 3.506 0 0 1-.696-1.296 4.925 4.925 0 0 1-.192-1.548h9.288a9.879 9.879 0 0 0-.204-2.376 6.878 6.878 0 0 0-.912-2.304 5.434 5.434 0 0 0-1.752-1.74c-.728-.456-1.644-.684-2.748-.684-.848 0-1.628.16-2.34.48a5.5 5.5 0 0 0-1.848 1.344 6.195 6.195 0 0 0-1.212 2.04c-.288.784-.432 1.648-.432 2.592.032.944.172 1.816.42 2.616s.62 1.488 1.116 2.064a5.086 5.086 0 0 0 1.836 1.344c.728.32 1.588.48 2.58.48 1.408 0 2.576-.352 3.504-1.056.928-.704 1.528-1.752 1.8-3.144ZM99.168 17.28c-.352.208-.84.312-1.464.312-.528 0-.948-.148-1.26-.444-.312-.296-.468-.78-.468-1.452-.56.672-1.212 1.156-1.956 1.452a6.465 6.465 0 0 1-2.412.444c-.56 0-1.092-.064-1.596-.192a3.711 3.711 0 0 1-1.308-.6 2.88 2.88 0 0 1-.876-1.068c-.216-.44-.324-.972-.324-1.596 0-.704.12-1.28.36-1.728a3.14 3.14 0 0 1 .948-1.092c.392-.28.84-.492 1.344-.636.504-.144 1.02-.264 1.548-.36.56-.112 1.092-.196 1.596-.252a8.892 8.892 0 0 0 1.332-.24c.384-.104.688-.256.912-.456.224-.2.336-.492.336-.876 0-.448-.084-.808-.252-1.08a1.728 1.728 0 0 0-.648-.624 2.635 2.635 0 0 0-.888-.288 6.706 6.706 0 0 0-.972-.072c-.864 0-1.584.164-2.16.492-.576.328-.888.948-.936 1.86h-2.04c.032-.768.192-1.416.48-1.944a3.64 3.64 0 0 1 1.152-1.284 4.833 4.833 0 0 1 1.644-.708 8.682 8.682 0 0 1 1.98-.216c.56 0 1.116.04 1.668.12a4.36 4.36 0 0 1 1.5.492c.448.248.808.596 1.08 1.044.272.448.408 1.032.408 1.752v6.384c0 .48.028.832.084 1.056.056.224.244.336.564.336.176 0 .384-.04.624-.12v1.584Zm-3.312-6.36c-.256.192-.592.332-1.008.42-.416.088-.852.16-1.308.216-.456.056-.916.12-1.38.192-.464.072-.88.188-1.248.348a2.27 2.27 0 0 0-.9.684c-.232.296-.348.7-.348 1.212 0 .336.068.62.204.852a1.7 1.7 0 0 0 .528.564c.216.144.468.248.756.312s.592.096.912.096c.672 0 1.248-.092 1.728-.276.48-.184.872-.416 1.176-.696.304-.28.528-.584.672-.912.144-.328.216-.636.216-.924V10.92ZM101.184.192v17.136h2.04v-4.704l1.92-1.776 4.248 6.48h2.592l-5.28-7.896 4.92-4.512h-2.736l-5.664 5.424V.192h-2.04ZM120.744 17.328h2.04V4.92h-2.04v12.408Zm0-14.64h2.04V.192h-2.04v2.496ZM114.36 6.72v10.608h2.04V6.72h2.4v-1.8h-2.4V3.192c0-.544.136-.912.408-1.104.272-.192.656-.288 1.152-.288.176 0 .368.012.576.036.208.024.4.068.576.132V.192a3.52 3.52 0 0 0-.66-.144 5.223 5.223 0 0 0-.66-.048c-1.12 0-1.972.26-2.556.78-.584.52-.876 1.284-.876 2.292V4.92h-2.088v1.8h2.088ZM125.952 4.92v12.408h2.04V10.32c0-.56.076-1.076.228-1.548.152-.472.38-.884.684-1.236a3.038 3.038 0 0 1 1.14-.816c.456-.192.996-.288 1.62-.288.784 0 1.4.224 1.848.672.448.448.672 1.056.672 1.824v8.4h2.04v-8.16c0-.672-.068-1.284-.204-1.836a3.477 3.477 0 0 0-.708-1.428c-.336-.4-.776-.712-1.32-.936-.544-.224-1.224-.336-2.04-.336-1.84 0-3.184.752-4.032 2.256h-.048V4.92h-1.92ZM140.784 11.232c0-.608.064-1.2.192-1.776a4.698 4.698 0 0 1 .624-1.536 3.249 3.249 0 0 1 1.152-1.08c.48-.272 1.064-.408 1.752-.408.704 0 1.304.132 1.8.396s.9.612 1.212 1.044c.312.432.54.932.684 1.5a7.15 7.15 0 0 1 .216 1.764c0 .576-.068 1.144-.204 1.704a4.466 4.466 0 0 1-.66 1.5c-.304.44-.696.796-1.176 1.068s-1.064.408-1.752.408c-.656 0-1.228-.128-1.716-.384a3.41 3.41 0 0 1-1.2-1.032 4.566 4.566 0 0 1-.696-1.476 6.344 6.344 0 0 1-.228-1.692Zm9.6 6.096V.192h-2.04v6.384h-.048a3.286 3.286 0 0 0-.828-.924 4.704 4.704 0 0 0-1.044-.6 5.24 5.24 0 0 0-1.104-.324 6.043 6.043 0 0 0-1.032-.096c-.944 0-1.772.172-2.484.516a5.1 5.1 0 0 0-1.776 1.392 5.877 5.877 0 0 0-1.056 2.052 8.753 8.753 0 0 0-.348 2.496c0 .88.12 1.712.36 2.496a6.17 6.17 0 0 0 1.068 2.064 5.161 5.161 0 0 0 1.776 1.416c.712.352 1.548.528 2.508.528.864 0 1.656-.152 2.376-.456.72-.304 1.248-.8 1.584-1.488h.048v1.68h2.04ZM162.144 9.936h-7.128a4.25 4.25 0 0 1 .312-1.356c.176-.424.416-.796.72-1.116.304-.32.668-.572 1.092-.756.424-.184.9-.276 1.428-.276a3.49 3.49 0 0 1 2.508 1.02c.312.312.56.684.744 1.116.184.432.292.888.324 1.368Zm1.968 3.456h-2.016c-.176.816-.54 1.424-1.092 1.824-.552.4-1.26.6-2.124.6-.672 0-1.256-.112-1.752-.336a3.434 3.434 0 0 1-1.224-.9 3.506 3.506 0 0 1-.696-1.296 4.925 4.925 0 0 1-.192-1.548h9.288a9.879 9.879 0 0 0-.204-2.376 6.878 6.878 0 0 0-.912-2.304 5.434 5.434 0 0 0-1.752-1.74c-.728-.456-1.644-.684-2.748-.684-.848 0-1.628.16-2.34.48a5.5 5.5 0 0 0-1.848 1.344 6.195 6.195 0 0 0-1.212 2.04c-.288.784-.432 1.648-.432 2.592.032.944.172 1.816.42 2.616s.62 1.488 1.116 2.064a5.086 5.086 0 0 0 1.836 1.344c.728.32 1.588.48 2.58.48 1.408 0 2.576-.352 3.504-1.056.928-.704 1.528-1.752 1.8-3.144ZM166.344 4.92v12.408h2.04v-5.52c0-.8.08-1.508.24-2.124.16-.616.416-1.14.768-1.572.352-.432.816-.76 1.392-.984.576-.224 1.272-.336 2.088-.336v-2.16c-1.104-.032-2.016.192-2.736.672-.72.48-1.328 1.224-1.824 2.232h-.048V4.92h-1.92ZM172.656 14.664h2.664v2.664h-2.664zM187.296 8.904h2.112c-.08-.736-.272-1.372-.576-1.908a4.259 4.259 0 0 0-1.164-1.332 4.822 4.822 0 0 0-1.632-.78 7.5 7.5 0 0 0-1.98-.252c-.976 0-1.832.172-2.568.516a5.125 5.125 0 0 0-1.836 1.416 6.023 6.023 0 0 0-1.092 2.112 9.105 9.105 0 0 0-.36 2.604c0 .928.124 1.78.372 2.556a5.605 5.605 0 0 0 1.104 2.004c.488.56 1.096.992 1.824 1.296.728.304 1.564.456 2.508.456 1.584 0 2.836-.416 3.756-1.248.92-.832 1.492-2.016 1.716-3.552h-2.088c-.128.96-.476 1.704-1.044 2.232-.568.528-1.356.792-2.364.792-.64 0-1.192-.128-1.656-.384a3.222 3.222 0 0 1-1.128-1.02 4.503 4.503 0 0 1-.636-1.452 6.9 6.9 0 0 1-.204-1.68c0-.624.064-1.228.192-1.812.128-.584.34-1.1.636-1.548a3.294 3.294 0 0 1 1.188-1.08c.496-.272 1.112-.408 1.848-.408.864 0 1.552.216 2.064.648.512.432.848 1.04 1.008 1.824ZM193.248 11.136c0-.752.1-1.42.3-2.004.2-.584.476-1.076.828-1.476.352-.4.764-.704 1.236-.912a3.679 3.679 0 0 1 1.5-.312c.528 0 1.028.104 1.5.312.472.208.884.512 1.236.912s.628.892.828 1.476c.2.584.3 1.252.3 2.004s-.1 1.42-.3 2.004c-.2.584-.476 1.072-.828 1.464a3.593 3.593 0 0 1-1.236.9 3.679 3.679 0 0 1-1.5.312 3.679 3.679 0 0 1-1.5-.312 3.593 3.593 0 0 1-1.236-.9c-.352-.392-.628-.88-.828-1.464-.2-.584-.3-1.252-.3-2.004Zm-2.16 0c0 .912.128 1.76.384 2.544s.64 1.468 1.152 2.052a5.3 5.3 0 0 0 1.896 1.368c.752.328 1.616.492 2.592.492.992 0 1.86-.164 2.604-.492a5.325 5.325 0 0 0 1.884-1.368 5.807 5.807 0 0 0 1.152-2.052 8.15 8.15 0 0 0 .384-2.544c0-.912-.128-1.764-.384-2.556a5.791 5.791 0 0 0-1.152-2.064 5.454 5.454 0 0 0-1.884-1.38c-.744-.336-1.612-.504-2.604-.504-.976 0-1.84.168-2.592.504a5.427 5.427 0 0 0-1.896 1.38 5.791 5.791 0 0 0-1.152 2.064 8.264 8.264 0 0 0-.384 2.556ZM205.536 4.92v12.408h2.04V9.6c0-.24.06-.54.18-.9s.312-.708.576-1.044a3.454 3.454 0 0 1 1.032-.864c.424-.24.932-.36 1.524-.36.464 0 .844.068 1.14.204.296.136.532.328.708.576.176.248.3.54.372.876.072.336.108.704.108 1.104v8.136h2.04V9.6c0-.96.288-1.728.864-2.304.576-.576 1.368-.864 2.376-.864.496 0 .9.072 1.212.216.312.144.556.34.732.588.176.248.296.54.36.876.064.336.096.696.096 1.08v8.136h2.04V8.232c0-.64-.1-1.188-.3-1.644-.2-.456-.48-.828-.84-1.116a3.51 3.51 0 0 0-1.296-.636 6.496 6.496 0 0 0-1.692-.204c-.816 0-1.564.184-2.244.552a4.332 4.332 0 0 0-1.644 1.56c-.256-.768-.696-1.312-1.32-1.632-.624-.32-1.32-.48-2.088-.48-1.744 0-3.08.704-4.008 2.112h-.048V4.92h-1.92Z" style="fill:#f9f9f9;fill-rule:nonzero" transform="translate(6.0 50.0)"/></g>
</svg>
